<svg width="63" height="52" viewBox="0 0 63 52" fill="none" xmlns="http://www.w3.org/2000/svg">
<path d="M41.7768 18.274C43.9093 19.8118 45.1161 21.6839 45.6503 24.2982C45.7487 25.2491 45.7487 25.2491 45.6503 25.9167C45.4423 26.1304 45.2343 26.3441 45.0201 26.5642C44.1929 26.4428 44.1929 26.4428 43.4446 26.2405C43.391 25.9788 43.3373 25.7172 43.2821 25.4476C42.7699 22.8177 42.7699 22.8177 41.2389 20.7373C39.3613 19.6404 37.588 19.3814 35.5117 19.9558C33.8443 20.6591 33.1561 21.694 32.3571 23.3194C32.0619 23.9569 32.0619 23.9569 32.101 24.6219C32.3472 24.466 32.3472 24.466 32.5983 24.307C34.3724 23.5339 36.7548 23.6258 38.5667 24.2463C40.2968 25.2557 41.4935 26.8866 42.0611 28.8454C42.5851 31.5372 41.57 33.3325 40.4302 35.6687C39.2119 38.3228 38.8268 40.3253 38.8437 43.2368C38.6972 44.5566 38.3534 45.0531 37.4577 45.9871C36.6119 46.6463 36.1963 46.6345 35.1142 46.6143C33.7314 46.2404 33.2425 45.8907 32.4161 44.6922C32.2023 43.7205 32.1243 42.7734 32.101 41.7788C32.8809 41.6186 32.8809 41.6186 33.6765 41.4551C33.8065 41.8223 33.9365 42.1895 34.0704 42.5678C34.4845 43.7422 34.4845 43.7422 35.2717 44.0246C35.6851 44.0383 36.0988 44.0448 36.5124 44.0448C36.5205 43.6617 36.5287 43.2787 36.537 42.884C36.6391 39.5834 36.992 37.0886 38.5212 34.1475C39.6499 31.9448 39.6499 31.9448 39.6634 29.4776C39.1595 28.1317 38.6718 27.3048 37.4577 26.5642C36.3173 26.1736 35.5065 26.136 34.3067 26.2405C33.2162 26.7531 33.2162 26.7531 32.4161 27.5353C32.4161 27.9626 32.4161 28.3899 32.4161 28.8302C32.9133 28.8001 32.9133 28.8001 33.4205 28.7695C34.9638 28.8475 35.6765 29.2847 36.7684 30.3678C37.3092 31.4205 37.2629 32.1886 37.1426 33.3622C36.5782 34.705 35.9342 35.3826 34.6218 35.9519C33.7375 36.0637 33.0021 36.0278 32.101 35.9519C31.8931 35.7383 31.6851 35.5246 31.4709 35.3045C31.589 34.4547 31.589 34.4547 31.786 33.6859C32.7218 33.6859 33.6576 33.6859 34.6218 33.6859C34.6218 32.8313 34.6218 31.9767 34.6218 31.0962C33.582 31.0962 32.5422 31.0962 31.4709 31.0962C29.961 28.6701 29.3202 26.6705 29.6873 23.7785C30.2599 21.2986 31.6744 19.4273 33.7196 18.0022C36.4091 16.5884 39.1756 16.7616 41.7768 18.274Z" fill="white"/>
<path d="M43.5515 13.9445C46.7844 16.0041 49.0816 18.7562 50.1198 22.4959C50.6228 27.6241 48.9171 31.7938 45.7848 35.7212C45.6322 35.9067 45.4797 36.0922 45.3225 36.2833C43.3754 38.6684 42.8107 40.6542 42.7225 43.7165C42.5902 46.2063 42.0834 48.2228 40.3002 50.0273C38.4838 51.5094 36.7499 52.0743 34.4105 51.9923C32.4959 51.7515 31.1115 51.1497 29.7574 49.748C28.4861 47.8371 27.5333 45.9845 27.8484 43.6564C28.6358 43.4977 28.6358 43.4977 29.4392 43.3357C29.5704 43.7127 29.7017 44.0896 29.8369 44.4779C30.5257 46.3158 31.2275 48.0304 32.939 49.1068C34.4739 49.5161 35.8074 49.5154 37.3336 49.0868C38.4642 48.3942 39.2848 47.6986 39.9386 46.5419C40.1832 45.5046 40.2296 44.4787 40.2766 43.4159C40.553 39.6929 41.3167 37.4256 43.7267 34.5439C46.6923 30.8641 47.9877 27.5516 47.5745 22.8165C47.0916 20.6941 46.0874 18.7497 44.3929 17.3661C41.3063 15.5232 38.488 14.5055 34.8964 15.3297C31.8619 16.3361 29.7515 17.9077 28.2076 20.7212C27.8484 21.2134 27.8484 21.2134 26.9535 21.3737C26.7239 21.3208 26.4942 21.2679 26.2576 21.2134C25.9607 20.4134 25.883 20.0624 26.2253 19.2647C30.124 13.4859 37.0057 10.6603 43.5515 13.9445Z" fill="white"/>
<path d="M21.2755 23.3103C21.8156 23.4016 22.3534 23.5075 22.8873 23.6294C23.2095 24.9809 23.5309 26.3326 23.8513 27.6845C23.9605 28.1446 24.07 28.6045 24.1797 29.0644C24.3372 29.7249 24.4937 30.3856 24.6501 31.0463C24.7447 31.444 24.8392 31.8417 24.9366 32.2515C25.1437 33.2028 25.1437 33.2028 25.1437 33.841C26.2075 33.841 27.2713 33.841 28.3673 33.841C28.4905 34.3695 28.5974 34.9019 28.6897 35.4365C28.0645 36.0554 26.9601 35.8254 26.131 35.8354C25.7225 35.8437 25.314 35.8519 24.8932 35.8604C24.5503 35.8258 24.2075 35.7913 23.8543 35.7557C23.2473 34.8543 23.0733 34.4046 22.8646 33.3785C22.8085 33.1081 22.7524 32.8376 22.6946 32.5589C22.6385 32.2778 22.5824 31.9966 22.5246 31.7069C22.466 31.4221 22.4074 31.1372 22.3471 30.8437C22.2029 30.1412 22.0606 29.4384 21.9202 28.7352C21.8533 28.9845 21.7864 29.2338 21.7175 29.4906C20.612 33.6024 19.4928 37.7105 18.3743 41.8188C17.5764 41.9767 17.5764 41.9767 16.7625 42.1379C15.7437 40.0646 15.0635 37.9923 14.506 35.7557C14.3078 35.7705 14.1096 35.7853 13.9054 35.8005C11.7815 35.8944 11.7815 35.8944 11.0205 35.2969C10.831 34.8922 10.831 34.8922 10.6377 34.4792C10.4694 34.1318 10.4694 34.1318 10.2978 33.7774C9.34832 31.7648 9.34832 31.7648 9.34832 30.969C9.13556 30.969 8.92281 30.969 8.7036 30.969C8.64501 31.1541 8.58642 31.3392 8.52606 31.5299C8.44503 31.7792 8.364 32.0285 8.28051 32.2853C8.20197 32.5297 8.12344 32.774 8.04252 33.0258C7.68632 33.9748 7.23911 34.8571 6.76947 35.7557C5.76213 35.7741 4.75484 35.7855 3.74738 35.7955C3.46066 35.8009 3.17394 35.8062 2.87854 35.8118C2.46715 35.8148 2.46715 35.8148 2.04746 35.818C1.66764 35.823 1.66764 35.823 1.28014 35.8281C0.644711 35.7557 0.644711 35.7557 0 35.1174C0.106377 34.6962 0.212755 34.275 0.322356 33.841C2.87541 33.683 2.87541 33.683 5.48005 33.5219C5.65873 33.1146 5.83741 32.7074 6.0215 32.2878C6.25731 31.7551 6.49321 31.2224 6.72918 30.6898C6.84677 30.4211 6.96437 30.1525 7.08553 29.8758C7.1998 29.6187 7.31407 29.3616 7.43181 29.0967C7.53647 28.8594 7.64114 28.6221 7.74897 28.3776C8.05889 27.7779 8.05889 27.7779 8.7036 27.1396C9.34548 27.1745 9.34548 27.1745 9.99303 27.4588C10.3761 28.0516 10.3761 28.0516 10.6831 28.8162C10.7953 29.0887 10.9075 29.3613 11.0231 29.6421C11.1913 30.0718 11.1913 30.0718 11.363 30.5103C11.4802 30.798 11.5974 31.0857 11.7181 31.3822C12.0071 32.0937 12.2901 32.8076 12.5719 33.5219C13.6356 33.6272 14.6994 33.7325 15.7954 33.841C16.2209 34.7887 16.6464 35.7365 17.0849 36.713C17.5963 35.7004 17.8965 34.9373 18.1703 33.8634C18.2883 33.4066 18.2883 33.4066 18.4087 32.9405C18.4904 32.619 18.5721 32.2975 18.6563 31.9662C18.8276 31.3046 18.9993 30.6431 19.1713 29.9817C19.2549 29.6601 19.3385 29.3384 19.4246 29.0069C20.7969 23.7841 20.7969 23.7841 21.2755 23.3103Z" fill="white"/>
<path d="M40.1697 0C45.9721 0.370244 50.935 2.26473 55.3132 6.15805C55.5385 6.35279 55.7637 6.54754 55.9957 6.74818C59.6985 10.1678 62.248 15.3156 62.727 20.3314C62.7706 21.6222 62.7676 22.906 62.727 24.1968C62.19 24.2106 61.6524 24.2099 61.1153 24.1968C60.5292 23.6111 60.6821 22.7831 60.6177 21.9974C60.1397 16.3882 57.9343 11.2932 53.7016 7.44653C49.1351 4.00994 44.4813 2.69828 38.874 1.97047C38.6726 1.3665 38.6726 1.3665 38.5517 0.681991C39.1964 0.0377486 39.1964 0.0377486 40.1697 0Z" fill="white"/>
<path d="M38.8781 4.49495C44.2714 4.33748 48.6442 5.70046 52.8104 9.09661C56.2733 12.3884 58.8746 16.647 59.1722 21.386C59.1744 22.1207 59.1592 22.8479 59.1135 23.5812C58.6827 23.7877 58.2519 23.9942 57.808 24.2069C56.9908 23.4234 57.0064 22.8136 56.8663 21.746C56.2689 17.2271 54.5381 13.5597 50.9541 10.4398C50.0106 9.74598 49.042 9.13828 48.0167 8.5625C47.7571 8.40157 47.4975 8.24064 47.23 8.07483C45.0177 6.89442 42.3418 6.59668 39.8445 6.46884C39.2045 6.37228 39.2045 6.37228 38.5517 5.7465C38.6741 5.08162 38.6741 5.08162 38.8781 4.49495Z" fill="white"/>
<path d="M44.6548 9.04249C48.248 10.2543 51.1933 12.6255 52.9905 15.9751C53.9981 18.118 54.7128 19.7921 54.6891 22.1727C54.6861 22.551 54.6832 22.9292 54.6802 23.3188C54.6765 23.6086 54.6728 23.8983 54.6689 24.1969C54.1318 24.2106 53.5943 24.2099 53.0572 24.1969C52.4485 23.5914 52.5896 22.4833 52.5132 21.6717C52.2422 19.3027 51.4998 17.532 50.1561 15.5392C49.9633 15.2416 49.7705 14.944 49.5718 14.6374C46.6142 11.6952 42.9181 10.6134 38.874 10.0881C38.7677 9.55898 38.6613 9.0299 38.5517 8.48479C40.47 7.53065 42.7406 8.43495 44.6548 9.04249Z" fill="white"/>
</svg>
