<svg width="53" height="53" viewBox="0 0 53 53" fill="none" xmlns="http://www.w3.org/2000/svg">
<path d="M17.5129 0.188642C17.7609 0.184733 18.0089 0.180824 18.2643 0.176797C19.0831 0.16519 19.9019 0.158906 20.7207 0.153649C21.0013 0.15131 21.2818 0.148971 21.5709 0.146561C23.0561 0.134426 24.5413 0.126446 26.0265 0.1218C27.5562 0.116197 29.0854 0.0964063 30.6149 0.0732967C31.795 0.058082 32.975 0.053522 34.1552 0.051789C34.7188 0.0491228 35.2824 0.0424919 35.846 0.0317217C40.7994 -0.0566968 40.7994 -0.0566967 42.4704 1.3717C42.8581 1.79651 43.2357 2.23083 43.6007 2.67512C43.9688 3.0347 44.3405 3.39061 44.7161 3.74235C45.0746 4.09737 45.4323 4.4533 45.7891 4.81009C45.9807 5.00067 46.1724 5.19125 46.3698 5.38761C46.7689 5.78493 47.1675 6.18267 47.5658 6.58082C48.1772 7.19171 48.7904 7.80074 49.4038 8.40963C49.7934 8.798 50.1829 9.18647 50.5723 9.57507C50.7555 9.75683 50.9387 9.9386 51.1274 10.1259C52.3669 11.3686 52.8252 11.9477 52.837 13.6864C52.8399 14.0071 52.8428 14.3277 52.8458 14.6581C52.848 15.1875 52.848 15.1875 52.8502 15.7276C52.8544 16.2838 52.8544 16.2838 52.8587 16.8513C52.8671 18.0826 52.8727 19.3138 52.8776 20.5451C52.8794 20.9648 52.8812 21.3845 52.8831 21.8169C52.8903 23.5804 52.8968 25.3439 52.9007 27.1075C52.9062 29.6344 52.9175 32.1612 52.9369 34.6881C52.9516 36.6793 52.957 38.6705 52.9592 40.6617C52.9615 41.5087 52.9667 42.3556 52.9748 43.2025C52.9856 44.387 52.9856 45.571 52.9831 46.7555C52.9887 47.1064 52.9943 47.4573 53 47.8188C52.9792 50.1997 52.9792 50.1997 51.9856 51.4877C50.0403 52.9081 50.0403 52.9081 48.6244 52.9145C48.3312 52.9173 48.0379 52.9202 47.7358 52.9232C47.4151 52.9229 47.0944 52.9226 46.7639 52.9223C46.256 52.9257 46.256 52.9257 45.7379 52.9292C44.6158 52.9356 43.4938 52.9369 42.3717 52.9377C41.5925 52.9398 40.8134 52.9421 40.0343 52.9445C38.3995 52.9486 36.7648 52.9498 35.1301 52.9494C33.0358 52.9493 30.9416 52.9586 28.8473 52.9703C27.2374 52.9778 25.6276 52.9792 24.0177 52.9788C23.2456 52.9796 22.4736 52.9826 21.7015 52.9879C20.621 52.9945 19.5408 52.9925 18.4602 52.9885C17.9822 52.9942 17.9822 52.9942 17.4946 53C15.5987 52.9818 14.4782 52.7524 12.9877 51.4685C12.1616 50.234 12.2201 49.3313 12.241 47.9066C12.242 47.6599 12.243 47.4131 12.2439 47.1589C12.2477 46.3717 12.2563 45.5847 12.2649 44.7975C12.2684 44.2634 12.2715 43.7294 12.2742 43.1953C12.2817 41.8868 12.2935 40.5785 12.3075 39.2701C11.911 39.1977 11.911 39.1977 11.5065 39.1239C8.21593 38.4196 4.94109 35.4946 3.08504 32.8083C-0.417688 26.9277 -0.0362967 20.8433 0.0622709 14.1958C1.65234 13.7925 3.23824 13.4236 4.84555 13.0945C7.07159 12.5989 9.04565 11.7791 11.1143 10.8444C13.3306 10.1462 14.9811 10.8692 17.027 11.7815C19.2197 12.7203 21.3564 13.2099 23.7161 13.5391C25.5116 13.7957 25.5116 13.7957 26.2534 14.5346C26.3414 15.418 26.3414 15.418 26.3437 16.5333C26.345 17.1445 26.345 17.1445 26.3464 17.7682C26.3438 18.1967 26.3411 18.6252 26.3384 19.0666C26.3424 19.6897 26.3424 19.6897 26.3464 20.3254C26.3337 26.2604 25.2014 31.0907 20.9745 35.4754C17.4453 38.5924 17.4453 38.5924 15.7089 38.5924C15.8211 42.0588 15.9334 45.5252 16.049 49.0966C26.9371 49.0966 37.8251 49.0966 49.043 49.0966C49.2114 31.6529 49.2114 31.6529 49.3832 13.8569C46.9137 13.8569 44.4443 13.8569 41.9 13.8569C40.1993 12.8404 40.1993 12.8404 39.519 11.8239C39.519 9.14023 39.519 6.4566 39.519 3.69164C31.6617 3.69164 23.8043 3.69164 15.7089 3.69164C15.7089 4.47437 15.7089 5.2571 15.7089 6.06354C14.5864 6.06354 13.464 6.06354 12.3075 6.06354C12.1412 2.95896 12.1412 2.95896 12.9027 1.65859C14.4038 0.329369 15.5069 0.213937 17.5129 0.188642Z" fill="#008C1C"/>
<path d="M20.1309 39.6089C28.7739 39.6089 37.417 39.6089 46.322 39.6089C46.322 40.3917 46.322 41.1744 46.322 41.9808C37.6789 41.9808 29.0358 41.9808 20.1309 41.9808C20.1309 41.1981 20.1309 40.4154 20.1309 39.6089Z" fill="#008C1C"/>
<path d="M17.4309 20.2737C18.2936 20.745 18.8482 21.2113 19.4505 21.9891C19.3022 23.9774 17.2675 25.3536 15.9428 26.6694C15.6475 26.9732 15.3522 27.277 15.0479 27.59C14.7622 27.8754 14.4766 28.1608 14.1823 28.4549C13.9208 28.7178 13.6593 28.9807 13.39 29.2515C12.6476 29.7825 12.6476 29.7825 11.9363 29.7507C10.8169 29.2213 10.0032 28.3382 9.13989 27.4742C8.9485 27.2931 8.75711 27.1121 8.55992 26.9255C8.01715 26.3875 8.01715 26.3875 7.20532 25.3776C7.31893 24.4206 7.54785 24.0191 8.14072 23.2386C8.90604 22.6668 8.90604 22.6668 9.73514 22.6668C10.7703 23.0692 11.4794 23.6303 12.3075 24.361C12.7263 24.0018 13.1442 23.6416 13.5618 23.281C13.8104 23.0665 14.059 22.852 14.3151 22.6311C14.905 22.1004 15.4339 21.5603 15.964 20.9726C16.7294 20.2949 16.7294 20.2949 17.4309 20.2737Z" fill="white"/>
<path d="M25.573 35.5428C32.4201 35.5428 39.2672 35.5428 46.3218 35.5428C46.3218 36.2138 46.3218 36.8847 46.3218 37.5759C39.4747 37.5759 32.6276 37.5759 25.573 37.5759C25.573 36.905 25.573 36.2341 25.573 35.5428Z" fill="#008C1C"/>
<path d="M28.6343 31.1379C34.4712 31.1379 40.308 31.1379 46.3218 31.1379C46.3218 31.9206 46.3218 32.7033 46.3218 33.5098C40.4849 33.5098 34.648 33.5098 28.6343 33.5098C28.6343 32.7271 28.6343 31.9443 28.6343 31.1379Z" fill="#008C1C"/>
<path d="M29.6548 26.7329C35.1549 26.7329 40.655 26.7329 46.3218 26.7329C46.3218 27.5156 46.3218 28.2984 46.3218 29.1048C40.8217 29.1048 35.3216 29.1048 29.6548 29.1048C29.6548 28.3221 29.6548 27.5394 29.6548 26.7329Z" fill="#008C1C"/>
<path d="M31.4957 22.2842C31.8146 22.2831 32.1336 22.282 32.4622 22.2809C32.809 22.2816 33.1559 22.2823 33.5133 22.283C34.0436 22.2825 34.0436 22.2825 34.5847 22.282C35.3338 22.2818 36.083 22.2824 36.8322 22.2839C37.9834 22.2857 39.1345 22.2839 40.2856 22.2817C41.0115 22.2819 41.7374 22.2824 42.4633 22.283C42.8102 22.2823 43.1571 22.2817 43.5145 22.2809C43.9929 22.2825 43.9929 22.2825 44.481 22.2842C44.9043 22.2846 44.9043 22.2846 45.3362 22.285C45.9817 22.328 45.9817 22.328 46.3218 22.6669C46.3218 23.3378 46.3218 24.0087 46.3218 24.6999C40.8217 24.6999 35.3216 24.6999 29.6548 24.6999C29.6548 22.2859 29.6548 22.2859 31.4957 22.2842Z" fill="#008C1C"/>
<path d="M29.9949 18.2619C35.3828 18.2619 40.7706 18.2619 46.3218 18.2619C46.3218 18.9328 46.3218 19.6037 46.3218 20.295C45.7867 20.828 45.2548 20.6769 44.5121 20.6776C44.2 20.6787 43.8879 20.6798 43.5663 20.6809C43.2268 20.6802 42.8874 20.6795 42.5377 20.6788C42.1917 20.6791 41.8457 20.6795 41.4892 20.6798C40.756 20.68 40.0229 20.6794 39.2897 20.678C38.1632 20.6762 37.0367 20.678 35.9102 20.6801C35.1998 20.6799 34.4894 20.6795 33.779 20.6788C33.2698 20.6798 33.2698 20.6798 32.7504 20.6809C32.4383 20.6798 32.1261 20.6787 31.8045 20.6776C31.5284 20.6774 31.2522 20.6771 30.9676 20.6768C30.335 20.6338 30.335 20.6338 29.9949 20.295C29.9949 19.624 29.9949 18.9531 29.9949 18.2619Z" fill="#008C1C"/>
</svg>
