<svg width="60" height="65" viewBox="0 0 60 65" fill="none" xmlns="http://www.w3.org/2000/svg">
<path d="M2.71891 0.0469526C3.45553 0.0433231 3.45553 0.0433231 4.20704 0.0396202C4.74734 0.0390405 5.28765 0.038618 5.82796 0.0383413C6.37831 0.0371235 6.92866 0.0358477 7.47902 0.0345159C8.63417 0.0322412 9.78931 0.0315428 10.9445 0.031767C12.4269 0.0318056 13.9093 0.0266278 15.3918 0.0200962C16.5289 0.0158856 17.666 0.0151097 18.8032 0.0153105C19.3498 0.0148619 19.8965 0.0131783 20.4431 0.010254C21.2068 0.0065514 21.9705 0.00810456 22.7342 0.00991472C23.3868 0.00910403 23.3868 0.00910403 24.0527 0.00827696C25.0773 0.102046 25.0773 0.102046 25.8358 0.860581C25.9219 1.60819 25.9219 1.60819 25.9099 2.51099C25.9074 2.83366 25.905 3.15633 25.9025 3.48879C25.8929 3.9948 25.8929 3.9948 25.8832 4.51103C25.8798 4.85131 25.8764 5.19158 25.8728 5.54216C25.8639 6.38377 25.8514 7.22516 25.8358 8.06666C26.2934 8.05493 26.2934 8.05493 26.7603 8.04296C27.7321 8.06666 27.7321 8.06666 28.1114 8.44593C28.1114 9.07172 28.1114 9.69751 28.1114 10.3423C34.3693 10.3423 40.6272 10.3423 47.0748 10.3423C47.0748 13.3461 47.0748 16.3499 47.0748 19.4447C47.7006 19.695 48.3264 19.9453 48.9711 20.2032C52.0462 21.988 54.4547 24.9807 55.6231 28.3486C55.8241 29.449 55.848 30.5282 55.8728 31.6446C55.9394 34.5238 56.0822 36.3284 58.1906 38.4984C59.308 39.6623 59.5906 40.4148 59.5906 42.0348C59.2113 43.3385 59.2113 43.3385 58.0498 44.0734C57.6822 44.2063 57.3145 44.3393 56.9357 44.4763C56.9514 44.9144 56.967 45.3524 56.9831 45.8038C56.9882 47.2348 56.733 48.4388 56.3387 49.8068C56.1209 50.6469 56.1209 50.6469 56.2483 51.9432C56.1772 53.1995 56.1772 53.1995 55.5372 54.2662C53.8957 55.3502 52.4478 55.4435 50.5104 55.607C49.0753 55.913 48.6406 56.1417 47.8333 57.3714C47.5561 58.5887 47.4651 59.8017 47.3829 61.0456C47.3314 61.703 47.2786 62.3603 47.2244 63.0175C47.2043 63.3077 47.1841 63.598 47.1634 63.897C47.0748 64.5775 47.0748 64.5775 46.6955 64.9568C45.9391 64.9925 45.1815 65.0013 44.4243 64.9998C43.9383 64.9998 43.4524 64.9998 42.9517 64.9998C42.4174 64.9978 41.8831 64.9958 41.3487 64.9938C40.8051 64.9931 40.2614 64.9926 39.7177 64.9922C38.2843 64.9907 36.8508 64.987 35.4174 64.9828C33.9557 64.979 32.4939 64.9772 31.0322 64.9753C28.1623 64.9712 25.2923 64.9648 22.4224 64.9568C22.6332 63.6255 22.83 62.4395 23.3928 61.2115C23.5655 60.8272 23.5655 60.8272 23.7417 60.4352C23.8617 60.1751 23.9817 59.915 24.1054 59.647C26.0071 55.4749 27.1129 51.4034 25.941 46.8171C25.4681 45.7221 24.8892 44.7628 24.2284 43.7726C21.9139 40.2973 20.8963 36.5015 21.2846 32.3398C21.3159 31.9966 21.3472 31.6534 21.3794 31.2998C21.9477 27.1207 24.0421 23.5743 27.3529 20.9618C27.5757 20.868 27.7984 20.7741 28.028 20.6775C28.817 20.3345 29.3829 20.04 30.0077 19.4447C30.3946 18.1517 30.3793 16.8992 30.3633 15.5572C30.3725 15.0248 30.3725 15.0248 30.3818 14.4816C30.3952 13.607 30.3965 12.734 30.387 11.8593C29.6361 11.8593 28.8851 11.8593 28.1114 11.8593C27.9862 12.4851 27.8611 13.1109 27.7321 13.7557C27.1063 13.7557 26.4806 13.7557 25.8358 13.7557C25.8378 13.9835 25.8398 14.2113 25.8418 14.446C25.8497 15.4722 25.8546 16.4984 25.8595 17.5246C25.8627 17.8833 25.8659 18.2419 25.8691 18.6113C25.8704 18.9523 25.8716 19.2934 25.8728 19.6447C25.8748 19.9605 25.8768 20.2763 25.8789 20.6017C25.8358 21.341 25.8358 21.341 25.4565 21.7203C24.6653 21.756 23.8729 21.7648 23.0808 21.7633C22.709 21.7634 22.709 21.7634 22.3296 21.7635C21.5067 21.7633 20.6838 21.7603 19.8609 21.7573C19.2917 21.7566 18.7225 21.7561 18.1533 21.7557C16.6525 21.7543 15.1517 21.7505 13.651 21.7463C12.1206 21.7425 10.5902 21.7407 9.05988 21.7388C6.05512 21.7347 3.05036 21.7283 0.0456086 21.7203C0.0368365 18.9576 0.0300898 16.195 0.025958 13.4323C0.0239753 12.1496 0.0212843 10.8669 0.0169969 9.5842C0.0121031 8.11092 0.0102498 6.63766 0.00857079 5.16438C0.00661328 4.70176 0.00465577 4.23914 0.00263895 3.7625C0.0026103 3.33731 0.00258165 2.91212 0.00255214 2.47404C0.00170993 2.09758 0.000867726 1.72111 0 1.33324C0.0921733 -0.388467 1.24646 0.0518482 2.71891 0.0469526Z" fill="white"/>
<path d="M37.593 19.4447C37.6339 20.496 37.664 21.5457 37.6878 22.5974C37.7069 23.0443 37.7069 23.0443 37.7263 23.5003C37.7404 24.3241 37.7387 25.081 37.593 25.8922C36.8404 26.5841 36.8404 26.5841 36.0759 27.03C35.8231 28.3575 35.8231 28.3575 36.0759 29.6849C36.6448 30.5067 36.6448 30.5067 37.593 30.8227C38.7789 30.8253 38.7789 30.8253 39.8686 30.4435C40.6899 29.2115 40.8363 28.8388 40.6271 27.4093C40.3759 27.2074 40.1246 27.0055 39.8657 26.7974C38.7446 25.4544 38.9424 24.2645 39.0153 22.5737C39.0221 22.273 39.0289 21.9723 39.036 21.6625C39.0538 20.923 39.081 20.1838 39.1101 19.4447C41.5123 19.3137 43.3209 19.7127 45.5576 20.5825C45.6017 22.2575 45.6286 23.9324 45.6524 25.6078C45.6715 26.3213 45.6715 26.3213 45.691 27.0493C45.6959 27.5064 45.7007 27.9635 45.7058 28.4345C45.7137 28.8556 45.7217 29.2767 45.7299 29.7105C45.5185 31.0757 45.0273 31.4207 44.0406 32.3398C44.0947 34.2577 44.0947 34.2577 45.1784 35.7532C46.3001 35.9429 46.3001 35.9429 47.454 35.7532C48.3419 34.9541 48.5574 34.4376 48.7577 33.2643C48.6756 32.8066 48.6756 32.8066 48.5918 32.3398C48.3411 32.1798 48.0904 32.0197 47.8321 31.8549C47.0747 31.202 47.0747 31.202 46.9025 30.1676C46.9104 29.7605 46.9184 29.3533 46.9265 28.9338C46.9314 28.4926 46.9363 28.0513 46.9414 27.5967C46.9541 27.1359 46.9668 26.6751 46.9799 26.2004C46.9867 25.7352 46.9936 25.27 47.0006 24.7907C47.0185 23.6405 47.0435 22.4909 47.0747 21.341C50.3962 22.5957 51.9658 24.6709 53.5222 27.7886C54.1734 29.3584 54.3412 30.687 54.3474 32.3838C54.363 35.3075 54.6228 37.0447 56.7119 39.2407C57.5239 40.1624 57.6632 40.9906 57.6942 42.2007C57.3187 42.3963 56.9432 42.5919 56.5564 42.7934C56.1809 43.0984 55.8054 43.4035 55.4186 43.7178C55.3236 44.9977 55.3236 44.9977 55.4186 46.3727C55.0505 47.2623 54.6718 48.1477 54.2808 49.0276C54.1844 50.0633 54.2226 50.7441 54.5415 51.7298C54.5806 51.9645 54.6197 52.1992 54.66 52.441C54.0751 53.204 53.7268 53.5404 52.7711 53.7195C52.4949 53.7278 52.2187 53.7361 51.9341 53.7447C50.097 53.8918 48.5932 54.4191 47.0747 55.4751C45.7063 57.3389 45.7063 57.3389 45.5576 63.4397C38.6739 63.4397 31.7902 63.4397 24.6979 63.4397C25.256 61.7653 25.8398 60.2875 26.5942 58.7137C28.1472 54.7708 28.6514 49.3924 27.092 45.3771C26.8173 44.815 26.5252 44.2611 26.215 43.7178C26.0556 43.4328 25.8962 43.1478 25.732 42.8541C25.4101 42.2834 25.0866 41.7134 24.7616 41.1444C22.699 37.2331 22.3922 33.169 23.5601 28.9264C24.8098 25.6998 26.8395 23.3725 29.6284 21.341C29.8787 21.341 30.129 21.341 30.3869 21.341C30.431 22.8264 30.4579 24.3116 30.4817 25.7974C30.4945 26.2189 30.5072 26.6403 30.5203 27.0745C30.5251 27.4803 30.53 27.8861 30.5351 28.3041C30.543 28.6775 30.551 29.0509 30.5592 29.4357C30.3407 30.7141 29.7894 31.0847 28.8699 31.9605C28.924 33.8785 28.924 33.8785 30.0077 35.3739C31.1294 35.5636 31.1294 35.5636 32.2833 35.3739C33.1613 34.5837 33.3842 34.0676 33.587 32.9087C33.5119 31.9003 33.5119 31.9003 32.6614 31.2868C31.6716 30.1847 31.7272 29.6009 31.7558 28.1382C31.7632 27.4782 31.7632 27.4782 31.7707 26.8049C31.7834 26.3472 31.7961 25.8896 31.8092 25.4182C31.816 24.9547 31.8229 24.4912 31.8299 24.0137C31.8478 22.8697 31.8727 21.7262 31.904 20.5825C33.8395 19.8599 35.4932 19.2832 37.593 19.4447Z" fill="#008C1C"/>
<path d="M1.56274 1.99841C8.94708 1.99841 16.3314 1.99841 23.9395 1.99841C23.9395 8.00601 23.9395 14.0136 23.9395 20.2033C16.5552 20.2033 9.17085 20.2033 1.56274 20.2033C1.56274 14.1957 1.56274 8.18806 1.56274 1.99841Z" fill="white"/>
<path d="M1.56274 1.99841C8.94708 1.99841 16.3314 1.99841 23.9395 1.99841C23.9395 8.00601 23.9395 14.0136 23.9395 20.2033C16.5552 20.2033 9.17085 20.2033 1.56274 20.2033C1.56274 14.1957 1.56274 8.18806 1.56274 1.99841ZM3.07981 3.51548C3.07199 5.94825 3.06417 8.38101 3.05611 10.8875C3.05266 11.6563 3.0492 12.425 3.04565 13.2171C3.04454 13.8228 3.04357 14.4285 3.04278 15.0343C3.04084 15.3517 3.0389 15.6691 3.0369 15.9962C3.03678 16.7666 3.05615 17.5369 3.07981 18.3069C3.69199 18.9191 4.35596 18.7345 5.20208 18.7353C5.5729 18.7365 5.94371 18.7376 6.32576 18.7389C6.72912 18.7381 7.13248 18.7373 7.54806 18.7366C7.95912 18.7369 8.37017 18.7373 8.79369 18.7377C9.66474 18.7379 10.5358 18.7372 11.4068 18.7356C12.7453 18.7336 14.0838 18.7356 15.4223 18.738C16.2663 18.7378 17.1102 18.7373 17.9542 18.7366C18.3576 18.7373 18.7609 18.7381 19.1765 18.7389C19.7327 18.7371 19.7327 18.7371 20.3002 18.7353C20.7924 18.7348 20.7924 18.7348 21.2946 18.7343C22.044 18.7688 22.044 18.7688 22.4225 18.3069C22.4561 17.2131 22.4662 16.1281 22.4595 15.0343C22.4591 14.7439 22.4587 14.4535 22.4583 14.1543C22.4563 13.0653 22.4511 11.9764 22.4462 10.8875C22.4383 8.45473 22.4305 6.02197 22.4225 3.51548C16.0394 3.51548 9.65631 3.51548 3.07981 3.51548Z" fill="#008C1C"/>
<path d="M4.5968 5.03247C9.97861 5.03247 15.3604 5.03247 20.9053 5.03247C20.9053 6.78469 20.9053 8.5369 20.9053 10.3422C20.5298 10.3422 20.1544 10.3422 19.7675 10.3422C19.6736 10.0997 19.5798 9.85723 19.4831 9.60738C19.0789 8.75407 19.0789 8.75407 18.203 8.54069C17.9684 8.50941 17.7337 8.47812 17.4919 8.44588C17.4215 8.85655 17.4215 8.85655 17.3497 9.27553C17.1162 10.326 16.7772 11.2513 16.3541 12.2386C16.1038 12.2386 15.8535 12.2386 15.5956 12.2386C14.6569 9.23475 14.6569 9.23475 13.6992 6.17027C13.4489 6.17027 13.1986 6.17027 12.9407 6.17027C12.84 6.45383 12.7393 6.7374 12.6355 7.02955C12.4346 7.58983 12.4346 7.58983 12.2296 8.16143C12.0976 8.53104 11.9656 8.90064 11.8296 9.28145C11.4871 10.1765 11.1123 11.0132 10.6651 11.8593C10.2896 11.3587 9.91413 10.858 9.52728 10.3422C9.30043 10.4674 9.07358 10.5925 8.83986 10.7215C7.18411 11.4784 6.39394 10.9413 4.5968 10.3422C4.5968 8.59 4.5968 6.83778 4.5968 5.03247Z" fill="#008C1C"/>
<path d="M12.9407 9.96301C13.6992 10.3423 13.6992 10.3423 14.1052 11.4312C14.2372 11.8776 14.3692 12.3239 14.5052 12.7838C14.6391 13.2292 14.7731 13.6746 14.9111 14.1335C15.2163 15.2728 15.2163 15.2728 15.2163 16.0313C16.4466 15.7691 16.4466 15.7691 16.88 14.6194C17.0428 14.2014 17.2056 13.7834 17.3734 13.3527C17.5391 12.9337 17.7048 12.5147 17.8756 12.0831C17.9993 11.7589 18.123 11.4348 18.2504 11.1008C19.1265 11.3511 20.0026 11.6014 20.9053 11.8594C20.9053 13.6116 20.9053 15.3638 20.9053 17.1691C15.5235 17.1691 10.1417 17.1691 4.5968 17.1691C4.5968 15.4169 4.5968 13.6647 4.5968 11.8594C4.97228 11.8594 5.34775 11.8594 5.7346 11.8594C6.11387 12.4915 6.49314 13.1236 6.87241 13.7557C7.24788 13.7557 7.62336 13.7557 8.01021 13.7557C8.26053 13.3802 8.51084 13.0047 8.76874 12.6179C9.01906 12.6179 9.26938 12.6179 9.52728 12.6179C9.70719 12.8682 9.88711 13.1185 10.0725 13.3764C10.3658 13.7519 10.3658 13.7519 10.6651 14.135C11.0406 14.135 11.416 14.135 11.8029 14.135C12.1784 12.7582 12.5538 11.3815 12.9407 9.96301Z" fill="#008C1C"/>
<path d="M39.1101 11.8594C41.2378 11.8594 43.3655 11.8594 45.5577 11.8594C45.5577 14.1122 45.5577 16.3651 45.5577 18.6862C43.3292 18.4773 41.269 18.1372 39.1101 17.5484C39.1101 15.671 39.1101 13.7936 39.1101 11.8594Z" fill="#008C1C"/>
<path d="M31.9039 11.8594C33.7813 11.8594 35.6587 11.8594 37.5929 11.8594C37.5929 13.8619 37.5929 15.8644 37.5929 17.9277C35.7156 18.178 33.8382 18.4283 31.9039 18.6862C31.9039 16.4333 31.9039 14.1805 31.9039 11.8594Z" fill="#008C1C"/>
<path d="M18.2504 11.1008C19.1265 11.3511 20.0026 11.6015 20.9053 11.8594C20.9053 13.6116 20.9053 15.3638 20.9053 17.1691C15.5235 17.1691 10.1417 17.1691 4.5968 17.1691C4.5968 15.4169 4.5968 13.6647 4.5968 11.8594C4.97228 11.9845 5.34775 12.1097 5.7346 12.2386C5.48429 12.2386 5.23397 12.2386 4.97607 12.2386C4.97607 13.7405 4.97607 15.2424 4.97607 16.7898C8.4805 16.7898 11.9849 16.7898 15.5956 16.7898C15.5956 16.5395 15.5956 16.2892 15.5956 16.0313C15.8459 15.9061 16.0962 15.781 16.3541 15.652C16.7115 14.8972 17.0395 14.1282 17.3497 13.3527C17.6034 12.7243 17.6034 12.7243 17.8623 12.0831C17.9904 11.7589 18.1185 11.4348 18.2504 11.1008Z" fill="#008C1C"/>
<path d="M45.9369 32.3398C46.4375 32.5902 46.9381 32.8405 47.4539 33.0984C47.2036 33.599 46.9533 34.0996 46.6954 34.6154C46.1948 34.3651 45.6941 34.1148 45.1783 33.8569C45.4287 33.3563 45.679 32.8556 45.9369 32.3398Z" fill="#008C1C"/>
<path d="M30.7661 31.9606C31.2667 32.2109 31.7674 32.4612 32.2832 32.7191C32.0329 33.2197 31.7825 33.7204 31.5246 34.2362C31.024 33.9859 30.5234 33.7355 30.0076 33.4776C30.2579 32.977 30.5082 32.4764 30.7661 31.9606Z" fill="#008C1C"/>
<path d="M37.593 27.4094C38.344 27.5972 38.344 27.5972 39.1101 27.7887C39.1101 28.2893 39.1101 28.79 39.1101 29.3058C38.4843 29.1806 37.8585 29.0554 37.2137 28.9265C37.3389 28.4259 37.4641 27.9252 37.593 27.4094Z" fill="#008C1C"/>
</svg>
