<svg width="74" height="70" viewBox="0 0 74 70" fill="none" xmlns="http://www.w3.org/2000/svg">
<path d="M60.6487 22.0681C64.6561 21.2705 68.7481 22.1672 72.9115 21.5865C72.9115 15.4068 72.9115 9.35114 72.9115 3.14404C64.484 3.14404 56.2079 3.14404 47.7803 3.14404C47.7803 9.35114 47.7803 15.4068 47.7803 21.6074C52.048 22.1119 56.2345 21.3199 60.3459 22.0681" stroke="white" stroke-width="2" stroke-linecap="round" stroke-linejoin="round"/>
<path d="M37.637 27.8211C41.5975 23.5509 42.5319 18.1304 43.3892 12.6817C43.9003 9.43309 41.0131 4.27212 37.637 2.38715C33.8819 0.290545 29.1127 0.638269 26.1152 2.97219C20.8715 7.0551 21.0718 12.5598 22.2952 18.1099C22.854 20.6447 23.8026 23.1817 25.4672 25.4419C28.621 29.724 32.8632 30.7477 37.3343 27.8211" stroke="white" stroke-width="2" stroke-linecap="round" stroke-linejoin="round"/>
<path d="M27.0396 28.1239C25.7093 32.0368 23.0993 34.0823 18.8749 34.5728C15.994 34.9074 13.2452 36.2501 10.378 36.8658C6.82203 37.6295 5.72006 40.0373 5.2051 43.2577C4.10481 50.1386 2.82216 56.9904 1.60014 63.8516C1.4023 64.9624 2.16632 66.2483 1.00004 67.1832" stroke="white" stroke-width="2" stroke-linecap="round" stroke-linejoin="round"/>
<path d="M60.3459 22.371C60.3459 26.61 60.3687 30.8491 60.3398 35.0879C60.3085 39.6561 57.6639 42.3119 53.079 42.3462C48.0329 42.384 42.9862 42.3548 37.9398 42.3548C33.6496 42.3548 32.4897 43.5147 32.4897 47.8049" stroke="white" stroke-width="2" stroke-linecap="round" stroke-linejoin="round"/>
<path d="M56.7125 37.5103C46.9224 37.5103 37.1324 37.5103 27.3423 37.5103C22.2916 37.5103 20.3778 39.3443 20.0755 44.4743" stroke="white" stroke-width="2" stroke-linecap="round" stroke-linejoin="round"/>
<path d="M60.6487 50.2272C61.658 56.0811 62.6673 61.9349 63.6766 67.7888" stroke="white" stroke-width="2" stroke-linecap="round" stroke-linejoin="round"/>
<path d="M60.3459 42.9604C60.0704 46.2273 59.1165 47.1883 56.1069 47.1974C53.0791 47.2065 50.0512 47.1994 47.0234 47.1994" stroke="white" stroke-width="2" stroke-linecap="round" stroke-linejoin="round"/>
<path d="M32.1869 48.1077C30.9755 48.5112 30.0398 49.294 29.8015 50.5371C29.574 51.7243 30.1851 52.8695 31.2983 53.1857C32.2901 53.4675 33.4524 53.4751 34.3433 52.3766C35.1197 51.4194 35.1245 50.5095 34.5724 49.6452C34.1148 48.929 33.4578 48.2461 32.4897 48.1077" stroke="white" stroke-width="2" stroke-linecap="round" stroke-linejoin="round"/>
<path d="M46.7206 46.8966C45.9343 45.6811 45.1095 44.2334 43.4158 44.8483C42.4295 45.2063 41.3324 45.9209 41.5295 47.5076C41.685 48.7595 42.2126 49.4053 43.39 49.6217C44.6536 49.8539 45.8508 49.8992 46.4111 48.408C46.5565 48.021 46.6197 47.6031 46.7206 47.1994" stroke="white" stroke-width="2" stroke-linecap="round" stroke-linejoin="round"/>
<path d="M13.717 57.7969C11.8535 60.3178 11.7114 63.4555 10.7532 66.2965C10.4746 67.1228 10.3472 67.7963 9.47802 68.0916" stroke="white" stroke-width="2" stroke-linecap="round" stroke-linejoin="round"/>
<path d="M39.151 59.3108C42.5672 59.95 45.9099 59.7143 49.14 58.3954C51.0407 57.6193 51.9843 58.6355 52.4502 60.226C53.2413 62.9263 53.8865 65.6693 54.593 68.3944" stroke="white" stroke-width="2" stroke-linecap="round" stroke-linejoin="round"/>
<path d="M50.0512 58.7052C49.8732 62.1345 50.432 65.5855 49.7484 68.9999" stroke="white" stroke-width="2" stroke-linecap="round" stroke-linejoin="round"/>
<path d="M20.3783 44.7771C22.0433 45.4585 23.6903 46.0439 22.2303 48.4321C21.3486 49.8742 20.2816 50.3636 18.8818 49.5901C17.2857 48.708 17.0231 46.7228 18.3071 45.4307C18.5821 45.154 19.0735 44.4926 19.7727 44.7771" stroke="white" stroke-width="2" stroke-linecap="round" stroke-linejoin="round"/>
<path d="M13.717 56.283C14.5545 60.0294 18.107 58.8858 20.4251 59.7972C21.7817 60.3305 23.6385 60.202 25.2228 59.6136" stroke="white" stroke-width="2" stroke-linecap="round" stroke-linejoin="round"/>
<path d="M15.2309 59.008C14.5284 62.1174 15.119 65.2685 14.9282 68.3943" stroke="white" stroke-width="2" stroke-linecap="round" stroke-linejoin="round"/>
<path d="M37.9398 28.1239C39.1945 31.2048 40.7585 33.9454 44.6011 34.1796" stroke="white" stroke-width="2" stroke-linecap="round" stroke-linejoin="round"/>
<path d="M54.593 7.53454C53.4828 6.82824 52.5798 7.18742 51.8777 8.14725C51.1482 9.14454 51.7563 9.88564 52.4742 10.5617C53.151 11.1991 53.8333 11.8307 54.5243 12.4752C55.8652 11.2693 57.7727 10.5178 57.5719 8.44765C57.4193 6.87517 55.9684 7.26595 54.8958 7.23176" stroke="white" stroke-width="2" stroke-linecap="round" stroke-linejoin="round"/>
<path d="M32.4897 60.5219C30.2036 60.924 29.513 62.5985 30.1649 64.4233C30.6583 65.8045 32.3096 66.1842 33.6811 65.3347C35.1016 64.4548 35.4248 63.2317 34.3442 61.7063C33.9088 61.0918 33.3625 60.8439 32.7925 60.5219" stroke="white" stroke-width="2" stroke-linecap="round" stroke-linejoin="round"/>
<path d="M69.4295 8.14014C67.6128 8.14014 65.7961 8.14014 63.9793 8.14014" stroke="white" stroke-width="2" stroke-linecap="round" stroke-linejoin="round"/>
<path d="M69.4295 11.4708C67.6128 11.4708 65.7961 11.4708 63.9793 11.4708" stroke="white" stroke-width="2" stroke-linecap="round" stroke-linejoin="round"/>
<path d="M32.1869 55.0718C32.778 56.7587 32.3633 58.5048 32.4897 60.2191" stroke="white" stroke-width="2" stroke-linecap="round" stroke-linejoin="round"/>
<path d="M61.5571 15.7097C62.1866 18.6685 64.2267 18.4028 66.4016 17.8292" stroke="white" stroke-width="2" stroke-linecap="round" stroke-linejoin="round"/>
<path d="M61.5571 16.618C60.4844 18.213 58.0872 18.0209 57.4179 17.6494C55.3292 16.4899 53.6847 17.8549 51.8679 17.8292" stroke="white" stroke-width="2" stroke-linecap="round" stroke-linejoin="round"/>
</svg>
