<svg width="54" height="54" viewBox="0 0 54 54" fill="none" xmlns="http://www.w3.org/2000/svg">
<path d="M53.3422 0.0232338C53.6572 0.338187 53.6572 0.338187 53.6769 1.14525C53.6704 1.3986 53.6639 1.65194 53.6572 1.91295C52.7906 2.34624 52.0473 2.27599 51.0785 2.30665C45.6344 2.67441 40.6953 5.19393 36.9647 9.15688C35.0587 11.5493 34.3729 13.6707 34.2876 16.6961C34.186 20.2792 33.0413 22.704 31.2364 25.7565C31.083 26.0247 30.9295 26.2928 30.7714 26.5691C30.6303 26.8091 30.4891 27.0491 30.3437 27.2963C29.9171 28.2095 29.9171 28.2095 30.0357 29.9438C31.3868 30.5674 32.738 31.191 34.1301 31.8335C33.877 36.0938 33.877 36.0938 33.4805 38.0538C33.1565 39.6688 33.1211 41.2147 33.1852 42.8569C34.2335 43.3052 35.217 43.6118 36.3384 43.8128C36.6289 43.8662 36.9194 43.9196 37.2187 43.9746C37.5181 44.028 37.8176 44.0814 38.126 44.1364C38.7245 44.2442 39.3229 44.3528 39.921 44.4624C40.1848 44.5095 40.4486 44.5566 40.7203 44.6052C41.374 44.7466 41.374 44.7466 42.0039 45.0616C41.8185 47.9824 41.135 50.7353 40.4291 53.5653C39.9075 53.6857 39.3821 53.7902 38.8544 53.8802C38.7504 53.7763 38.6465 53.6724 38.5394 53.5653C38.5783 52.0312 38.7981 50.5205 39.189 49.0378C39.5369 47.8894 39.5369 47.8894 39.4843 46.6363C39.2922 46.6064 39.1001 46.5765 38.9021 46.5457C38.0255 46.4053 37.1507 46.2552 36.2757 46.1048C35.9734 46.0579 35.6712 46.0111 35.3598 45.9627C33.5495 45.6433 32.4314 45.3564 31.2955 43.8017C30.4264 42.364 30.7094 41.0403 30.9412 39.4515C30.9905 39.0791 30.9905 39.0791 31.0408 38.6991C31.1221 38.0898 31.2083 37.4812 31.2955 36.8728C30.0422 36.9163 28.7889 36.9631 27.5357 37.0106C27.1779 37.0229 26.82 37.0353 26.4513 37.0481C26.1112 37.0613 25.7712 37.0745 25.4209 37.0881C25.1059 37.0996 24.7908 37.1112 24.4663 37.1231C23.749 37.108 23.749 37.108 23.4217 37.5027C23.4089 38.0274 23.4082 38.5527 23.4217 39.0774C23.7554 39.0929 24.0891 39.1083 24.433 39.1242C24.8701 39.1478 25.3073 39.1716 25.7444 39.1955C25.9645 39.2053 26.1845 39.215 26.4113 39.2251C28.0746 39.321 28.0746 39.321 28.7759 40.0223C28.6578 40.6916 28.6578 40.6916 28.4609 41.2821C27.6294 41.2821 26.798 41.2821 25.9413 41.2821C25.9577 41.6926 25.9577 41.6926 25.9745 42.1113C26.065 45.9639 26.065 45.9639 24.9964 47.2662C24.3686 47.5928 23.7267 47.8697 23.0784 48.1533C22.1768 48.7119 21.97 49.4341 21.5701 50.385C20.6535 52.0999 18.9423 53.2912 17.1226 53.8802C14.6222 54.2451 12.5584 53.7917 10.5086 52.3055C8.24187 50.0622 7.92085 47.6996 7.90189 44.6266C7.9022 44.2492 7.90252 43.8719 7.90284 43.4831C7.89645 42.6779 7.88989 41.8727 7.88315 41.0674C7.87602 39.8026 7.87057 38.5377 7.86901 37.2728C7.86602 36.0489 7.8554 34.8253 7.84379 33.6014C7.84538 33.2222 7.84696 32.8429 7.8486 32.4521C7.84234 31.9238 7.84234 31.9238 7.83594 31.3848C7.83504 31.0754 7.83415 30.7659 7.83322 30.447C7.63118 29.4088 7.17438 29.0763 6.41419 28.369C6.29116 27.3504 6.29116 27.3504 6.33545 26.2431C6.34682 25.8745 6.35819 25.5058 6.3699 25.126C6.38452 24.845 6.39913 24.5641 6.41419 24.2746C6.2315 24.2893 6.0488 24.3039 5.86056 24.3189C4.07484 24.4014 3.09552 24.2243 1.68989 23.0148C0.10196 21.2981 0.0641104 19.9254 0.051153 17.6545C0.0484601 17.2875 0.0484601 17.2875 0.0457128 16.9131C0.042743 16.3961 0.0406812 15.8791 0.0394653 15.3621C0.0364128 14.5761 0.0266379 13.7905 0.016705 13.0046C0.0146476 12.5008 0.0129942 11.997 0.0117838 11.4932C0.00789517 11.2605 0.0040065 11.0278 0 10.7881C0.00754835 9.00908 0.327959 7.468 1.54349 6.08855C3.14519 4.90059 4.02398 4.70298 5.98359 4.71678C6.33878 4.71744 6.33878 4.71744 6.70115 4.71813C7.45851 4.71989 8.21584 4.72385 8.97319 4.72785C9.48622 4.72943 9.99925 4.73087 10.5123 4.73215C11.7709 4.73563 13.0294 4.74107 14.288 4.74753C14.3015 5.27228 14.3008 5.79753 14.288 6.3223C13.6857 6.9246 12.5905 6.67859 11.793 6.68154C11.3419 6.68732 10.8908 6.69348 10.4397 6.7C9.72707 6.70911 9.01475 6.71599 8.30207 6.71615C7.61508 6.7172 6.92881 6.7281 6.24195 6.7406C5.82997 6.74354 5.41799 6.74648 4.99352 6.74952C3.58475 7.00935 3.13417 7.35236 2.3198 8.52697C2.0984 9.43622 2.09133 10.3107 2.09958 11.2434C2.09733 11.5031 2.09507 11.7628 2.09275 12.0304C2.09031 12.5778 2.09187 13.1252 2.0972 13.6726C2.10325 14.5088 2.09084 15.3433 2.07682 16.1794C2.07673 16.7125 2.07772 17.2456 2.0799 17.7787C2.07508 18.0274 2.07027 18.2762 2.06531 18.5324C2.09247 19.821 2.23211 20.3767 3.01822 21.4393C4.58394 22.5257 6.5679 22.294 8.39249 22.2791C9.00044 22.2814 9.00044 22.2814 9.62067 22.2837C10.4764 22.286 11.3318 22.2826 12.1875 22.2753C13.2805 22.2663 14.373 22.2715 15.466 22.2809C16.5136 22.288 17.5611 22.283 18.6088 22.2791C18.9996 22.2823 19.3904 22.2855 19.793 22.2888C22.0034 22.297 22.0034 22.297 23.9824 21.4393C24.9138 20.1815 24.956 19.3088 24.9325 17.7787C24.9352 17.3892 24.9352 17.3892 24.9379 16.9918C24.9392 16.4444 24.9358 15.8969 24.9278 15.3495C24.9177 14.5133 24.9278 13.679 24.9398 12.8428C24.9386 12.3097 24.9362 11.7766 24.9325 11.2434C24.9363 10.9947 24.9401 10.746 24.9441 10.4897C24.9192 9.51238 24.897 8.80919 24.2917 8.01654C23.4089 7.23033 22.6197 6.75684 21.436 6.72952C21.2005 6.72039 20.965 6.71125 20.7224 6.70184C20.4829 6.70002 20.2433 6.69819 19.9966 6.69631C19.6263 6.68443 19.6263 6.68443 19.2485 6.67232C18.645 6.65392 18.0413 6.64465 17.4376 6.63725C17.3172 6.11564 17.2127 5.59017 17.1226 5.06249C17.8242 4.36086 19.3899 4.65956 20.3312 4.64911C20.5993 4.63998 20.8675 4.63084 21.1438 4.62143C22.9108 4.60366 23.9119 4.82599 25.3114 6.00735C26.8993 7.72403 26.9372 9.09674 26.9501 11.3677C26.9519 11.6124 26.9537 11.857 26.9556 12.1091C26.9585 12.6261 26.9606 13.1431 26.9618 13.6601C26.9649 14.446 26.9746 15.2317 26.9846 16.0176C26.9866 16.5214 26.9883 17.0252 26.9895 17.529C26.9934 17.7617 26.9973 17.9943 27.0013 18.2341C26.9937 20.0131 26.6733 21.5542 25.4578 22.9336C23.7936 24.1679 22.8493 24.3186 20.811 24.3054C20.4244 24.3047 20.4244 24.3047 20.0299 24.304C19.2051 24.3023 18.3804 24.2983 17.5557 24.2943C16.9971 24.2927 16.4386 24.2913 15.88 24.29C14.5095 24.2865 13.1389 24.2811 11.7684 24.2746C11.7867 24.5292 11.8049 24.7838 11.8238 25.046C11.838 25.3826 11.8522 25.7192 11.8668 26.0659C11.8851 26.3984 11.9034 26.731 11.9222 27.0735C11.7684 28.0541 11.7684 28.0541 10.9879 28.7119C9.70719 30.1904 9.96876 31.7978 9.98448 33.69C9.98298 34.0873 9.98147 34.4845 9.97992 34.8938C9.97885 35.7341 9.98095 36.5737 9.98833 37.4139C9.99727 38.4846 9.99215 39.5548 9.9827 40.6255C9.9756 41.6535 9.98059 42.6815 9.98448 43.7095C9.9797 44.2819 9.9797 44.2819 9.97482 44.8659C10.0059 47.1232 10.2677 48.679 11.7684 50.4158C13.0733 51.6416 14.3775 51.7947 16.1494 51.7617C17.2927 51.6121 18.1493 51.1739 19.0123 50.4158C19.5316 49.7004 19.8864 49.0135 20.2721 48.2111C20.0448 48.1461 19.8174 48.0812 19.5832 48.0142C18.4115 47.4414 17.6359 46.8934 17.1226 45.6915C16.9908 44.2122 17.0313 42.763 17.1226 41.2821C16.8778 41.2476 16.633 41.2131 16.3807 41.1775C15.5478 40.9672 15.5478 40.9672 14.8195 40.1207C14.2345 38.9724 14.0513 38.4503 14.288 37.1877C14.8686 36.2686 15.5044 35.4772 16.4927 34.9831C16.9881 34.9547 17.4847 34.946 17.9809 34.9473C18.2898 34.9473 18.5987 34.9473 18.917 34.9474C19.2513 34.949 19.5857 34.9506 19.9301 34.9523C20.2718 34.9527 20.6134 34.9532 20.9654 34.9536C22.0598 34.9554 23.1541 34.9594 24.2484 34.9634C24.9891 34.9649 25.7297 34.9664 26.4703 34.9677C28.2887 34.9711 30.107 34.9764 31.9254 34.9831C31.8435 34.3497 31.7369 33.7193 31.6105 33.0933C30.9998 32.6421 30.9998 32.6421 30.2325 32.4241C29.3919 32.0953 28.8185 31.8697 28.1263 31.2823C27.6086 30.0399 27.6111 28.6991 28.043 27.4323C28.3374 26.8049 28.6569 26.1999 28.9924 25.5935C29.2238 25.1474 29.4551 24.7012 29.6863 24.255C30.0661 23.5388 30.4548 22.8328 30.8575 22.129C31.8539 20.2535 32.0297 18.6638 32.0829 16.578C32.196 12.1512 33.8303 9.03551 37.0311 5.97044C41.4907 2.16273 47.4209 -0.265612 53.3422 0.0232338Z" fill="#008C1C"/>
<path d="M10.1937 8.21204C10.9284 8.26563 10.9284 8.26563 11.7685 8.52699C12.2364 9.24663 12.2364 9.24663 12.6112 10.1891C12.7482 10.5263 12.8853 10.8635 13.0264 11.2109C13.1635 11.5659 13.3005 11.9209 13.4417 12.2867C13.5848 12.6406 13.7279 12.9944 13.8753 13.3589C14.918 15.9664 14.918 15.9664 14.918 16.7158C15.1259 16.7158 15.3337 16.7158 15.5479 16.7158C15.6051 16.5103 15.6624 16.3049 15.7214 16.0932C16.1698 14.534 16.6484 13.1047 17.4376 11.6765C18.6848 11.6765 19.932 11.6765 21.2171 11.6765C21.373 12.456 21.373 12.456 21.532 13.2513C20.8873 13.896 19.5465 13.7869 18.6974 13.8812C18.6022 14.1457 18.6022 14.1457 18.505 14.4155C18.2162 15.2156 17.9253 16.0149 17.6345 16.8142C17.4847 17.2304 17.4847 17.2304 17.3318 17.6551C17.2344 17.922 17.1369 18.189 17.0365 18.464C16.9475 18.7098 16.8584 18.9555 16.7667 19.2087C16.4928 19.8653 16.4928 19.8653 15.8629 20.8102C15.4471 20.8102 15.0314 20.8102 14.603 20.8102C13.3558 17.9 12.1086 14.9898 10.8236 11.9915C10.2 13.0308 9.57639 14.0702 8.93388 15.141C8.61893 15.456 8.61893 15.456 7.76142 15.4867C7.41429 15.4831 7.06717 15.4794 6.70952 15.4756C6.18762 15.4714 6.18762 15.4714 5.65517 15.467C5.38599 15.4634 5.11682 15.4597 4.83949 15.456C4.71912 14.9344 4.61463 14.4089 4.52454 13.8812C4.83949 13.5662 4.83949 13.5662 5.49031 13.5355C5.87946 13.541 5.87946 13.541 6.27646 13.5466C6.53671 13.5494 6.79695 13.5522 7.06508 13.5552C7.36653 13.5606 7.36653 13.5606 7.67407 13.5662C7.73903 13.3259 7.80399 13.0855 7.87091 12.8379C8.48002 11.2044 9.33655 9.72686 10.1937 8.21204Z" fill="#008C1C"/>
</svg>
