<svg width="54" height="53" viewBox="0 0 54 53" fill="none" xmlns="http://www.w3.org/2000/svg">
<path d="M38.2098 0C38.4898 0.00717766 38.7697 0.0143553 39.0581 0.0217505C39.3396 0.0273331 39.6212 0.0329157 39.9112 0.0386675C40.1273 0.0458452 40.3435 0.0530229 40.5661 0.060418C40.8724 0.672912 40.8724 0.672912 41.1848 1.29778C40.5661 1.91646 40.5661 1.91646 39.5995 1.95513C39.306 1.94237 39.0125 1.92961 38.7101 1.91646C38.7353 3.15407 38.7702 4.39122 38.8068 5.62854C38.8172 6.15072 38.8172 6.15072 38.8279 6.68344C38.8999 8.92281 38.9731 10.9811 40.49 12.7615C40.6746 12.9023 40.8593 13.043 41.0495 13.188C41.3276 13.4076 41.3276 13.4076 41.6114 13.6315C43.2573 14.7777 45.4552 14.4938 47.3716 14.2901C49.1006 13.5938 50.0398 12.3795 50.8291 10.7345C51.3548 9.13379 51.2955 7.45341 51.3157 5.78321C51.3249 5.41077 51.3341 5.03833 51.3435 4.6546C51.3652 3.74187 51.3816 2.82937 51.393 1.91646C50.8826 1.91646 50.3722 1.91646 49.8463 1.91646C49.7281 1.40415 49.6255 0.888036 49.537 0.369758C49.8463 0.060418 49.8463 0.060418 50.4747 0.0193338C50.8527 0.02053 50.8527 0.02053 51.2384 0.0217505C51.4904 0.020953 51.7424 0.0201555 52.0021 0.0193338C52.6304 0.060418 52.6304 0.060418 52.9398 0.369758C53.0229 1.72927 53.0237 3.09068 53.0311 4.45243C53.0363 5.13287 53.0499 5.81281 53.0636 6.49312C53.0954 9.31757 52.9415 11.8194 51.1055 14.1052C48.0468 16.5189 48.0468 16.5189 45.8249 16.4555C45.8572 17.0231 45.8572 17.0231 45.8902 17.6022C46.135 23.8599 44.447 29.2206 40.3341 34.0298C37.3042 37.2111 33.5252 39.1323 29.1157 39.3551C26.3667 39.3299 24.299 38.8428 22.3151 36.8719C20.3199 34.6412 19.699 32.7364 19.7654 29.745C19.9674 27.2758 21.0849 25.5091 22.9337 23.8796C25.3199 22.2374 27.7632 21.805 30.6093 22.1782C33.6302 23.1277 36.1786 24.5914 38.4974 26.7217C38.6698 26.8797 38.8421 27.0378 39.0197 27.2006C40.4633 28.5927 40.4633 28.5927 40.5661 29.7571C39.9536 30.0633 39.9536 30.0633 39.3288 30.3758C39.1308 30.1562 39.1308 30.1562 38.9288 29.9323C36.2043 27.0505 32.7838 24.2684 28.6952 24.0343C26.4711 24.0992 24.6739 24.9439 23.0884 26.4897C21.891 28.5352 21.6893 30.6034 22.1386 32.9157C22.657 34.586 23.6375 35.6259 25.0991 36.5626C27.409 37.6849 30.1097 37.4385 32.5233 36.7366C36.8337 35.1116 39.9244 32.1758 41.9002 28.0364C42.1924 27.3791 42.4685 26.7145 42.7315 26.045C42.8554 25.7389 42.8554 25.7389 42.9819 25.4265C43.6971 23.5146 43.8252 21.7133 43.8722 19.6842C43.8828 19.3722 43.8933 19.0601 43.9042 18.7386C43.9295 17.9776 43.951 17.2167 43.9689 16.4555C43.5478 16.3992 43.5478 16.3992 43.1182 16.3419C41.1017 15.9492 39.4449 14.693 38.1992 13.0755C36.5979 10.6128 36.7207 7.68316 36.7574 4.85519C36.7564 4.46122 36.7554 4.06724 36.7544 3.66133C36.7751 0.117601 36.7751 0.117601 38.2098 0Z" fill="white"/>
<path d="M5.22339 12.6595C5.47185 12.6608 5.7203 12.662 5.97629 12.6633C6.36867 12.6617 6.36867 12.6617 6.76899 12.66C7.63641 12.6573 8.50375 12.6591 9.37118 12.6612C9.9722 12.6608 10.5732 12.6602 11.1742 12.6594C12.435 12.6585 13.6957 12.6598 14.9564 12.6627C16.575 12.6663 18.1936 12.6642 19.8123 12.6605C21.0537 12.6583 22.2951 12.659 23.5365 12.6606C24.1335 12.661 24.7304 12.6605 25.3274 12.6591C26.1606 12.6575 26.9938 12.6599 27.8271 12.6633C28.0755 12.6621 28.324 12.6608 28.58 12.6595C30.2873 12.6727 30.2873 12.6727 30.9767 13.3621C31.0469 14.1138 31.0469 14.1138 31.0371 15.0465C31.0351 15.3795 31.0331 15.7124 31.031 16.0555C31.0233 16.5789 31.0233 16.5789 31.0153 17.1128C31.0125 17.4641 31.0097 17.8154 31.0069 18.1774C30.9996 19.0471 30.9894 19.9166 30.9767 20.7862C30.4643 20.9045 29.9482 21.0071 29.43 21.0956C29.3279 20.9935 29.2258 20.8914 29.1206 20.7862C29.1206 18.7446 29.1206 16.7029 29.1206 14.5994C21.0561 14.5994 12.9916 14.5994 4.68274 14.5994C4.68274 25.7264 4.68274 36.8534 4.68274 48.3175C12.7472 48.3175 20.8117 48.3175 29.1206 48.3175C29.1206 45.7655 29.1206 43.2134 29.1206 40.584C29.5289 40.4819 29.9373 40.3798 30.358 40.2747C31.2116 41.1283 31.0565 41.6334 31.0588 42.8267C31.06 43.4057 31.06 43.4057 31.0612 43.9964C31.0589 44.4016 31.0565 44.8067 31.054 45.2241C31.0576 45.8318 31.0576 45.8318 31.0612 46.4518C31.0604 46.8378 31.0596 47.2238 31.0588 47.6215C31.0581 47.9772 31.0574 48.3329 31.0567 48.6994C30.9767 49.5549 30.9767 49.5549 30.358 50.1736C29.5041 50.235 28.6813 50.2579 27.8271 50.2536C27.5655 50.2547 27.3039 50.2558 27.0344 50.2569C26.1669 50.2596 25.2996 50.2578 24.4322 50.2557C23.8312 50.2561 23.2301 50.2567 22.6291 50.2575C21.3684 50.2584 20.1077 50.2571 18.847 50.2542C17.2283 50.2507 15.6097 50.2527 13.991 50.2564C12.7496 50.2587 11.5083 50.2579 10.2669 50.2563C9.6699 50.2559 9.07294 50.2564 8.47598 50.2579C7.64271 50.2594 6.80955 50.2571 5.97629 50.2536C5.72783 50.2549 5.47937 50.2561 5.22339 50.2574C3.51607 50.2442 3.51607 50.2442 2.8267 49.5549C2.74884 48.9152 2.74884 48.9152 2.74813 48.1106C2.74639 47.8061 2.74464 47.5016 2.74285 47.1879C2.7441 46.8527 2.74535 46.5175 2.74664 46.1721C2.74556 45.82 2.74447 45.4679 2.74336 45.1051C2.74062 43.9364 2.74244 42.7677 2.74453 41.599C2.74411 40.7899 2.74351 39.9809 2.74273 39.1718C2.74161 37.4742 2.74309 35.7766 2.74604 34.0789C2.74941 32.1148 2.74831 30.1506 2.74491 28.1865C2.74177 26.2989 2.74209 24.4114 2.74391 22.5238C2.74432 21.7197 2.74381 20.9155 2.74237 20.1113C2.74081 18.9891 2.74319 17.867 2.74664 16.7449C2.74539 16.4096 2.74414 16.0744 2.74285 15.729C2.74459 15.4245 2.74634 15.12 2.74813 14.8063C2.74848 14.408 2.74848 14.408 2.74884 14.0017C2.92991 12.5141 3.97242 12.6692 5.22339 12.6595Z" fill="white"/>
<path d="M1.21052 9.92419C1.58473 9.92581 1.95894 9.92743 2.34449 9.9291C2.74824 9.9301 3.15198 9.9311 3.56796 9.93212C3.99753 9.93471 4.4271 9.93733 4.85667 9.93998C5.28745 9.94153 5.71823 9.94294 6.14902 9.94421C7.20695 9.94787 8.26485 9.95297 9.32277 9.95931C9.441 10.4716 9.54363 10.9877 9.63211 11.506C9.53003 11.6081 9.42795 11.7102 9.32277 11.8154C6.8728 11.8154 4.42282 11.8154 1.89861 11.8154C1.89861 24.8819 1.89861 37.9484 1.89861 51.4109C11.8006 51.4109 21.7026 51.4109 31.9046 51.4109C31.9046 47.6339 31.9046 43.8568 31.9046 39.9653C32.415 39.8632 32.9254 39.7612 33.4513 39.656C34.046 40.2507 33.8006 41.1349 33.8036 41.9261C33.8027 42.3384 33.8027 42.3384 33.8017 42.759C33.802 43.0394 33.8023 43.3197 33.8026 43.6086C33.8028 44.2025 33.8023 44.7965 33.801 45.3904C33.7993 46.3029 33.801 47.2153 33.8029 48.1278C33.8027 48.7034 33.8023 49.279 33.8017 49.8545C33.8024 50.1294 33.803 50.4043 33.8036 50.6874C33.7962 52.6127 33.7962 52.6127 33.4513 52.9576C33.0216 52.9878 32.5904 52.9967 32.1596 52.9969C31.8811 52.9978 31.6026 52.9986 31.3157 52.9995C31.0078 52.9989 30.6999 52.9983 30.3827 52.9976C29.8991 52.9985 29.8991 52.9985 29.4058 52.9993C28.3343 53.0006 27.2629 52.9997 26.1915 52.9987C25.4506 52.9989 24.7097 52.9992 23.9687 52.9996C22.4136 53 20.8585 52.9994 19.3034 52.9979C17.305 52.9962 15.3066 52.9972 13.3082 52.999C11.7775 53.0002 10.2469 52.9998 8.71628 52.999C7.9792 52.9988 7.24212 52.9991 6.50503 52.9998C5.47686 53.0005 4.44871 52.9994 3.42054 52.9976C3.11263 52.9983 2.80473 52.9989 2.48749 52.9995C2.06977 52.9982 2.06977 52.9982 1.64361 52.9969C1.40021 52.9968 1.15681 52.9967 0.906032 52.9965C0.351907 52.9576 0.351907 52.9576 0.0425664 52.6483C0.0120888 52.101 0.00349031 51.5524 0.00328529 51.0043C0.002413 50.6477 0.00154072 50.2911 0.000641998 49.9238C0.00126817 49.5291 0.00189435 49.1344 0.0025395 48.7277C0.00212065 48.3107 0.00157004 47.8936 0.000896887 47.4765C-0.000518079 46.3408 3.54193e-05 45.2051 0.00101415 44.0694C0.00179484 42.8834 0.0010717 41.6974 0.000585357 40.5115C2.18438e-05 38.5194 0.000766177 36.5274 0.00223741 34.5354C0.00392103 32.2291 0.00337581 29.9228 0.00167247 27.6166C0.000270779 25.6399 6.95071e-05 23.6633 0.000880071 21.6867C0.00136349 20.5046 0.00142351 19.3225 0.000404811 18.1404C-0.000485731 17.0294 0.00012554 15.9183 0.0019188 14.8072C0.00252608 14.2025 0.00160136 13.5979 0.000641998 12.9932C0.00151428 12.6366 0.00238657 12.28 0.00328529 11.9127C0.00340192 11.6008 0.00351855 11.289 0.00363871 10.9677C0.0614294 9.92992 0.15912 9.9672 1.21052 9.92419Z" fill="white"/>
<path d="M42.1129 32.5411C42.7981 32.4227 42.7981 32.4227 43.6596 32.5411C44.2147 33.172 44.6323 33.7315 45.071 34.4359C45.1864 34.6121 45.3019 34.7884 45.4208 34.97C45.9904 35.8416 46.5358 36.7188 47.0648 37.6163C47.5857 38.4671 47.5857 38.4671 48.3348 38.5805C48.6715 38.5578 48.6715 38.5578 49.0151 38.5346C50.2909 38.5959 50.8399 38.9032 51.7218 39.83C52.395 40.7051 52.779 41.3691 52.8432 42.4787C52.6032 43.831 52.3007 44.5065 51.3931 45.5334C50.0427 46.4337 48.9818 46.6627 47.3717 46.4615C46.2259 45.8345 45.6228 45.3848 44.897 44.2961C44.8039 43.5155 44.8039 43.5155 44.8003 42.6334C44.7951 42.3439 44.7899 42.0544 44.7846 41.7561C44.9147 40.7575 45.2583 40.169 45.825 39.3466C45.6607 39.1002 45.4964 38.8538 45.3272 38.5999C44.6682 37.6114 44.0092 36.623 43.3503 35.6345C43.119 35.3131 42.8877 34.9917 42.6494 34.6606C42.1129 33.7785 42.1129 33.7785 42.1129 32.5411Z" fill="white"/>
<path d="M11.4882 7.17523C15.0611 7.17523 18.634 7.17523 22.3151 7.17523C23.2431 10.2686 23.2431 10.2686 22.9338 11.506C22.3011 12.1386 20.9821 11.8661 20.1123 11.8673C19.7341 11.8688 19.7341 11.8688 19.3482 11.8704C18.8138 11.872 18.2794 11.8727 17.745 11.8727C16.9255 11.8733 16.1062 11.8789 15.2867 11.8848C14.7685 11.8857 14.2503 11.8863 13.7321 11.8866C13.4859 11.8889 13.2397 11.8911 12.9861 11.8934C11.2496 11.8861 11.2496 11.8861 10.5602 11.1967C10.6242 10.4136 10.6242 10.4136 10.8115 9.49528C10.8709 9.19223 10.9303 8.88917 10.9916 8.57693C11.1789 7.79391 11.1789 7.79391 11.4882 7.17523Z" fill="white"/>
<path d="M26.4622 9.91822C26.8645 9.91782 27.2669 9.91742 27.6814 9.91701C27.9973 9.91798 27.9973 9.91798 28.3196 9.91897C28.9632 9.92063 29.6068 9.91899 30.2504 9.91701C30.8539 9.91761 30.8539 9.91761 31.4696 9.91822C31.8419 9.91857 32.2141 9.91892 32.5976 9.91928C33.4513 9.9593 33.4513 9.9593 33.7607 10.2686C33.7881 11.0485 33.7963 11.8198 33.7909 12.5996C33.7905 12.8326 33.79 13.0656 33.7896 13.3057C33.7878 14.0527 33.784 14.7997 33.78 15.5468C33.7785 16.0521 33.7771 16.5574 33.7758 17.0626C33.7724 18.3038 33.767 19.545 33.7607 20.7862C33.2484 20.9044 32.7323 21.0071 32.214 21.0956C31.9046 20.7862 31.9046 20.7862 31.8695 19.9276C31.8712 19.5534 31.8728 19.1792 31.8744 18.7936C31.8754 18.3899 31.8764 17.9861 31.8775 17.5702C31.88 17.1406 31.8827 16.711 31.8853 16.2814C31.8869 15.8507 31.8883 15.4199 31.8895 14.9891C31.8932 13.9312 31.8988 12.8733 31.9046 11.8153C29.4547 11.8153 27.0047 11.8153 24.4805 11.8153C24.3784 11.3049 24.2763 10.7945 24.1711 10.2686C24.7456 9.69415 25.6947 9.91894 26.4622 9.91822Z" fill="white"/>
<path d="M8.84095 42.3657C9.31699 42.3677 9.31699 42.3677 9.80265 42.3698C10.3414 42.3699 10.3414 42.3699 10.891 42.37C11.2803 42.3732 11.6695 42.3764 12.0706 42.3796C12.4679 42.3805 12.8653 42.3814 13.2747 42.3823C14.3315 42.3847 15.3882 42.3907 16.445 42.3976C17.5232 42.4039 18.6014 42.4067 19.6796 42.4099C21.7955 42.4165 23.9113 42.427 26.0271 42.4401C26.1454 42.9524 26.248 43.4685 26.3365 43.9868C26.0271 44.2961 26.0271 44.2961 25.2971 44.3333C24.9735 44.3326 24.65 44.3319 24.3166 44.3312C23.9513 44.3312 23.5859 44.3312 23.2094 44.3311C22.8118 44.3296 22.4142 44.328 22.0045 44.3263C21.5999 44.3259 21.1952 44.3254 20.7783 44.325C19.7006 44.3238 18.623 44.3208 17.5454 44.3173C16.4465 44.3142 15.3476 44.3128 14.2487 44.3112C12.0911 44.3079 9.9336 44.3026 7.77608 44.2961C7.58274 43.7161 7.58274 43.7161 7.46674 43.0587C8.08542 42.4401 8.08542 42.4401 8.84095 42.3657Z" fill="white"/>
<path d="M7.77608 19.2395C12.5739 19.2395 17.3718 19.2395 22.3151 19.2395C22.4682 20.0051 22.4682 20.0051 22.6244 20.7862C22.1388 21.2718 21.6579 21.1373 20.9835 21.1405C20.5592 21.1434 20.5592 21.1434 20.1264 21.1465C19.6648 21.147 19.6648 21.147 19.1939 21.1475C18.8799 21.1485 18.566 21.1496 18.2425 21.1506C17.5771 21.1522 16.9116 21.1529 16.2462 21.1529C15.225 21.1535 14.204 21.1592 13.1829 21.165C12.5378 21.1659 11.8928 21.1665 11.2477 21.1668C10.9406 21.1691 10.6335 21.1713 10.3171 21.1736C10.0333 21.1726 9.74943 21.1717 9.45698 21.1707C9.2065 21.1711 8.95602 21.1716 8.69795 21.172C8.08542 21.0955 8.08542 21.0955 7.46674 20.4769C7.56882 20.0685 7.6709 19.6602 7.77608 19.2395Z" fill="white"/>
<path d="M29.4299 25.1169C29.8382 25.1169 30.2466 25.1169 30.6673 25.1169C31.1415 26.0654 31.0141 27.0569 31.0068 28.0968C31.0064 28.3293 31.0059 28.5619 31.0055 28.8015C31.0038 29.5454 30.9999 30.2892 30.9959 31.0331C30.9944 31.537 30.993 32.0408 30.9917 32.5447C30.9883 33.7809 30.983 35.017 30.9766 36.2532C30.4643 36.3714 29.9482 36.474 29.4299 36.5625C28.8852 36.0179 29.0809 35.3007 29.0776 34.5753C29.0782 34.3411 29.0788 34.1068 29.0795 33.8655C29.0792 33.6263 29.0789 33.3872 29.0786 33.1408C29.0784 32.6342 29.0789 32.1277 29.0802 31.6211C29.0819 30.843 29.0802 30.065 29.0783 29.287C29.0785 28.796 29.0789 28.305 29.0795 27.814C29.0788 27.5797 29.0782 27.3455 29.0776 27.1041C29.085 25.4618 29.085 25.4618 29.4299 25.1169Z" fill="white"/>
<path d="M10.2895 36.4804C10.5068 36.4799 10.7242 36.4793 10.9482 36.4786C11.4079 36.4782 11.8676 36.4794 12.3274 36.482C13.0321 36.4853 13.7366 36.482 14.4414 36.478C14.8877 36.4784 15.334 36.4792 15.7803 36.4804C16.1878 36.4811 16.5953 36.4818 17.0152 36.4826C17.9843 36.5626 17.9843 36.5626 18.603 37.1813C18.5009 37.5896 18.3988 37.998 18.2936 38.4187C14.8228 38.4187 11.352 38.4187 7.77608 38.4187C7.67399 38.0103 7.57191 37.602 7.46674 37.1813C8.36519 36.2828 9.03434 36.4826 10.2895 36.4804Z" fill="white"/>
<path d="M7.77608 25.1169C11.2469 25.1169 14.7177 25.1169 18.2936 25.1169C18.4468 25.7294 18.4468 25.7294 18.603 26.3543C17.7045 27.2528 17.0354 27.053 15.7803 27.0552C15.5629 27.0557 15.3455 27.0563 15.1215 27.0569C14.6618 27.0574 14.2021 27.0562 13.7424 27.0536C13.0376 27.0503 12.3331 27.0536 11.6283 27.0576C11.182 27.0572 10.7358 27.0564 10.2895 27.0552C9.88193 27.0545 9.4744 27.0538 9.05452 27.053C8.08542 26.973 8.08542 26.973 7.46674 26.3543C7.56882 25.946 7.6709 25.5376 7.77608 25.1169Z" fill="white"/>
<path d="M32.5233 26.045C32.9317 26.2491 33.34 26.4533 33.7607 26.6637C33.7607 29.522 33.7607 32.3803 33.7607 35.3252C33.2503 35.4273 32.7399 35.5294 32.214 35.6345C31.3616 34.7821 31.8472 32.1638 31.8466 31.0138C31.8429 30.6072 31.8391 30.2007 31.8352 29.7818C31.8343 29.2007 31.8343 29.2007 31.8334 28.6079C31.8321 28.2503 31.8308 27.8926 31.8295 27.5241C31.9046 26.6637 31.9046 26.6637 32.5233 26.045Z" fill="white"/>
<path d="M8.77667 30.9593C9.22012 30.9593 9.66357 30.9611 10.107 30.9642C10.4565 30.9649 10.4565 30.9649 10.8131 30.9655C11.5601 30.9673 12.3072 30.9711 13.0542 30.9751C13.5595 30.9766 14.0648 30.978 14.5701 30.9793C15.8113 30.9827 17.0525 30.9881 18.2936 30.9944C18.4676 31.5938 18.4676 31.5938 18.603 32.2318C18.2936 32.5411 18.2936 32.5411 17.293 32.5762C16.8496 32.5762 16.4062 32.5744 15.9627 32.5713C15.6132 32.5707 15.6132 32.5707 15.2566 32.57C14.5096 32.5683 13.7626 32.5644 13.0155 32.5604C12.5102 32.5589 12.0049 32.5575 11.4996 32.5562C10.2584 32.5528 9.01726 32.5475 7.77608 32.5411C7.60207 31.9418 7.60207 31.9418 7.46674 31.3037C7.77608 30.9944 7.77608 30.9944 8.77667 30.9593Z" fill="white"/>
<path d="M12.7256 8.72192C15.4818 8.72192 18.238 8.72192 21.0778 8.72192C21.0778 9.13025 21.0778 9.53858 21.0778 9.95928C18.3216 9.95928 15.5653 9.95928 12.7256 9.95928C12.7256 9.55096 12.7256 9.14263 12.7256 8.72192Z" fill="#EAEDF0"/>
</svg>
