<svg width="102" height="40" viewBox="0 0 102 40" fill="none" xmlns="http://www.w3.org/2000/svg">
<path d="M64.5108 22.9941C69.1744 22.9941 73.7793 22.8311 78.3899 22.1755C80.5887 21.8628 86.4952 22.0459 87.7774 20.013C83.9716 18.2835 79.725 18.293 75.9577 15.9839C74.335 14.9894 72.122 13.5918 72.009 11.2163C71.841 7.68544 74.5639 9.04302 76.5177 9.5696C80.7183 10.7019 85.1184 11.2445 89.3878 12.0088C92.6566 12.5939 100.452 12.114 101.804 16.5689C103.162 21.0418 97.1005 24.6711 94.5089 26.8224C90.3083 30.3091 86.1409 33.8643 81.9144 37.3054C80.7497 38.2537 78.5291 40.5449 76.889 39.8812C74.5985 38.9545 75.6531 36.5649 76.6607 34.9356C77.3113 33.8835 86.0571 24.3813 86.0755 24.3906C85.3701 24.0338 81.1409 25.5209 80.4489 25.6699C77.6232 26.2781 74.6786 26.6175 71.758 26.8671C64.1219 27.5194 56.1346 28.3173 48.5199 26.8664C44.9617 26.1885 42.4719 24.3567 39.4441 22.4268C36.5691 20.5942 33.725 22.3247 30.4581 22.7548C23.7087 23.6437 16.7798 22.4364 10.483 19.6401C6.18296 17.7306 -3.43287 11.7947 1.26 5.06711C2.48507 3.31085 4.5773 2.29465 4.21936 4.86454C3.97663 6.60693 2.80604 6.73676 3.27362 8.83862C3.61032 10.3523 4.75193 11.2725 5.82158 12.0793C11.1363 16.0879 19.1217 17.9923 25.363 18.0939C27.742 18.1327 32.502 17.7419 34.57 16.2784C36.4095 14.9766 35.4676 12.724 36.0719 10.0469C37.6383 3.10645 45.36 -2.47418 51.6579 1.12748C60.7823 6.34547 48.4583 16.4662 43.6666 18.6982C47.7257 23.9174 59.1294 22.9941 64.5108 22.9941ZM46.9383 5.52105C42.1233 5.74568 40.3817 8.94435 40.5184 13.8918C42.1276 13.0389 54.3728 5.52105 46.9383 5.52105C46.1123 5.55959 47.5929 5.52105 46.9383 5.52105Z" fill="#008C1C"/>
</svg>
