<svg width="32" height="32" viewBox="0 0 32 32" fill="none" xmlns="http://www.w3.org/2000/svg">
<rect width="32" height="32" rx="2" fill="#008C1C"/>
<path d="M23.1353 8.59165C23.2809 8.72854 23.4201 8.87188 23.5597 9.01543C23.6301 9.07898 23.7009 9.14204 23.7722 9.20444C25.5208 10.8031 26.5007 13.2512 26.8558 15.6036C26.8629 15.6498 26.8699 15.696 26.8771 15.7436C27.1912 17.9455 26.9404 21.226 25.6899 23.0726C25.6667 23.1027 25.6436 23.1328 25.6198 23.1639C25.5714 23.1391 25.5714 23.1391 25.522 23.1138C24.8419 22.7664 24.1587 22.4299 23.4645 22.1145C23.2181 22.0024 22.9741 21.8897 22.7357 21.7598C22.8146 21.5376 22.9131 21.3277 23.0126 21.1151C23.5971 19.8596 24.0289 18.5192 24.1263 17.1157C24.1296 17.0676 24.133 17.0196 24.1365 16.9701C24.2934 14.5524 23.7642 11.9775 22.2334 10.0922C22.0984 9.93397 21.9595 9.78071 21.8174 9.62949C21.7057 9.50145 21.7057 9.50145 21.7057 9.39344C21.6635 9.37486 21.6635 9.37486 21.6204 9.3559C21.4967 9.28371 21.4003 9.19731 21.296 9.09767C19.7257 7.6078 17.4976 6.97973 15.4181 7.06228C14.7589 7.10224 14.137 7.27274 13.517 7.50339C13.4542 7.52601 13.3913 7.54863 13.3265 7.57194C11.2499 8.37488 9.6845 10.2971 8.76465 12.3496C7.75988 14.6931 7.54563 17.3321 8.40671 19.7591C8.60778 20.2956 8.86402 20.7962 9.14435 21.2913C9.19094 21.3818 9.19094 21.3818 9.24244 21.5438C9.19454 21.5669 9.19454 21.5669 9.14567 21.5904C8.18006 22.0561 7.21728 22.5279 6.25537 23.0019C6.09644 22.8462 6.01813 22.6758 5.93349 22.4686C5.918 22.4308 5.90251 22.3929 5.88654 22.354C5.29639 20.879 4.9963 19.3412 5.00003 17.7434C5.00008 17.6961 5.00012 17.6487 5.00017 17.5998C5.00264 16.8097 5.05171 16.0511 5.22535 15.2796C5.23778 15.224 5.25021 15.1683 5.26302 15.1109C5.59064 13.6913 6.15919 12.3096 6.97639 11.1215C7.01164 11.0698 7.04689 11.0181 7.08321 10.9648C7.77324 9.97624 8.56162 9.09832 9.49994 8.36741C9.54867 8.32864 9.5974 8.28987 9.64761 8.24992C13.5532 5.19333 19.3799 5.19745 23.1353 8.59165Z" fill="white"/>
<path d="M10.7875 12.7417C11.0989 12.8414 11.3859 12.9617 11.6727 13.1231C11.729 13.1546 11.729 13.1546 11.7865 13.1868C12.1634 13.4028 12.5068 13.6564 12.8476 13.9297C12.8935 13.9664 12.9395 14.0031 12.9868 14.0409C13.3159 14.3106 13.6218 14.6054 13.9291 14.9018C14.599 15.5429 15.2629 16.1696 16.2106 16.1584C17.1328 16.0879 17.8821 15.2174 18.5224 14.5845C19.1351 13.9985 20.4589 12.7417 21.3453 12.7417C21.318 13.8927 20.6093 14.8411 19.8556 15.6105C19.6884 15.769 19.5122 15.9154 19.3367 16.0636C17.5572 17.6089 17.2198 19.4072 16.8872 21.7262C16.5871 23.817 16.5871 23.817 16.2467 24.7301C15.9107 24.7035 15.9107 24.7035 15.8012 24.5811C15.7285 24.4545 15.6955 24.3547 15.6653 24.2107C15.6542 24.1582 15.6431 24.1057 15.6317 24.0516C15.6201 23.9926 15.6085 23.9336 15.5965 23.8728C15.5836 23.8095 15.5708 23.7462 15.5576 23.6809C15.388 22.8219 15.2616 21.9536 15.1309 21.0873C14.8868 19.4876 14.6071 17.8038 13.4656 16.6298C13.43 16.5906 13.3944 16.5514 13.3578 16.5111C13.1336 16.2659 12.8894 16.0549 12.6378 15.8417C11.7014 15.0343 10.9769 14.1423 10.7875 12.8497C10.7875 12.8141 10.7875 12.7784 10.7875 12.7417Z" fill="white"/>
<path d="M23.2508 18.0336C23.3017 18.0871 23.3017 18.0871 23.3538 18.1416C22.7436 20.2414 21.539 22.3141 19.6458 23.3787C18.9102 23.7717 18.1521 24.017 17.3281 24.0818C17.4172 23.3303 17.5257 22.5819 17.6389 21.8341C17.6549 21.7284 17.6706 21.6227 17.6862 21.5169C17.7085 21.3659 17.7314 21.2151 17.7546 21.0642C17.7612 21.0186 17.7678 20.973 17.7746 20.9259C17.8771 20.2747 18.3366 19.9446 18.8198 19.5749C20.0982 18.6182 21.639 17.8671 23.2508 18.0336Z" fill="white"/>
<path d="M11.2013 18.3706C12.0745 18.6856 12.8508 19.1853 13.566 19.7928C13.7183 19.9239 13.7183 19.9239 13.8721 20.0261C14.1509 20.2362 14.2617 20.4272 14.3216 20.7741C14.3323 20.8445 14.3323 20.8445 14.3433 20.9162C14.3516 20.9658 14.3598 21.0154 14.3684 21.0665C14.3946 21.2255 14.4194 21.3846 14.4441 21.5438C14.4607 21.648 14.4773 21.7522 14.494 21.8564C14.535 22.116 14.5747 22.3757 14.6137 22.6356C14.6377 22.7959 14.6621 22.9561 14.6865 23.1164C14.702 23.219 14.7175 23.3216 14.733 23.4242C14.7402 23.4717 14.7475 23.5193 14.7549 23.5683C14.7615 23.6122 14.768 23.6561 14.7748 23.7014C14.7806 23.7398 14.7863 23.7782 14.7923 23.8178C14.8046 23.9199 14.8046 23.9199 14.8046 24.0819C13.388 24.0201 12.1235 23.2804 11.0965 22.2998C11.0462 22.2528 11.0462 22.2528 10.9949 22.2049C9.97351 21.1972 9.03033 19.5348 8.77896 18.0877C9.40753 17.7581 10.5703 18.1553 11.2013 18.3706Z" fill="white"/>
<path d="M22.2207 22.5159C22.4055 22.5892 22.575 22.6754 22.747 22.777C22.7988 22.8075 22.8505 22.8379 22.9038 22.8693C22.9588 22.9019 23.0138 22.9345 23.0705 22.9681C23.1273 23.0017 23.1841 23.0352 23.2427 23.0698C23.4172 23.1729 23.5915 23.2764 23.7658 23.3799C23.8184 23.4111 23.8709 23.4423 23.9251 23.4745C24.0706 23.5609 24.2159 23.6475 24.3612 23.7343C24.4259 23.7728 24.4259 23.7728 24.4918 23.8121C24.7516 23.9678 25.0069 24.1295 25.2593 24.2979C24.3644 25.3301 22.8836 25.8042 21.6027 25.972C20.2128 26.0356 18.581 26.0523 17.3281 25.324C17.4771 25.1977 17.6193 25.1165 17.7965 25.0409C17.8488 25.0182 17.9012 24.9955 17.9551 24.9722C18.0116 24.9479 18.0681 24.9237 18.1264 24.8987C20.3369 23.9874 20.3369 23.9874 22.2207 22.5159Z" fill="white"/>
<path d="M9.80895 22.3539C9.86779 22.4156 9.92644 22.4775 9.98424 22.5403C10.287 22.8481 10.6407 23.086 11.0064 23.3023C11.0523 23.3295 11.0982 23.3568 11.1456 23.3849C12.2569 24.0332 13.419 24.56 14.5986 25.054C14.5986 25.1074 14.5986 25.1609 14.5986 25.216C12.5417 25.9974 10.239 26.1205 8.21141 25.1765C7.69235 24.9143 7.20167 24.5919 6.77039 24.1899C6.91914 24.0206 7.06451 23.9116 7.25723 23.8022C7.31304 23.7702 7.36884 23.7382 7.42633 23.7052C7.48605 23.6714 7.54576 23.6375 7.60728 23.6027C7.7326 23.5309 7.85775 23.4588 7.98287 23.3867C8.01466 23.3684 8.04645 23.3501 8.07919 23.3312C8.55833 23.0545 9.02882 22.7621 9.49986 22.4706C9.69177 22.3539 9.69177 22.3539 9.80895 22.3539Z" fill="white"/>
<path d="M17.0837 11.2448C17.444 11.5022 17.6801 11.8689 17.7916 12.3095C17.8446 12.798 17.8451 13.2902 17.5856 13.7135C17.5585 13.7637 17.5585 13.7637 17.5309 13.815C17.3073 14.192 16.9282 14.4298 16.5268 14.552C16.0093 14.6571 15.5558 14.5643 15.1005 14.2921C14.7402 14.0348 14.5041 13.6681 14.3925 13.2275C14.3395 12.7389 14.3391 12.2467 14.5985 11.8234C14.6166 11.79 14.6347 11.7565 14.6533 11.722C14.8769 11.345 15.256 11.1072 15.6573 10.9849C16.1748 10.8799 16.6284 10.9726 17.0837 11.2448Z" fill="white"/>
</svg>
