<svg width="53" height="53" viewBox="0 0 53 53" fill="none" xmlns="http://www.w3.org/2000/svg">
<path d="M4.09229 38.0923C4.09229 39.1969 3.19685 40.0923 2.09229 40.0923C0.987716 40.0923 0.0922852 39.1969 0.0922852 38.0923C0.0922852 36.9878 0.987716 36.0923 2.09229 36.0923C3.19685 36.0923 4.09229 36.9878 4.09229 38.0923Z" fill="#D9D9D9" fill-opacity="0.1"/>
<path d="M4.09229 50.0923C4.09229 51.1969 3.19685 52.0923 2.09229 52.0923C0.987716 52.0923 0.0922852 51.1969 0.0922852 50.0923C0.0922852 48.9878 0.987716 48.0923 2.09229 48.0923C3.19685 48.0923 4.09229 48.9878 4.09229 50.0923Z" fill="#D9D9D9" fill-opacity="0.1"/>
<path d="M16.0923 14.0923C16.0923 15.1969 15.1969 16.0923 14.0923 16.0923C12.9877 16.0923 12.0923 15.1969 12.0923 14.0923C12.0923 12.9878 12.9877 12.0923 14.0923 12.0923C15.1969 12.0923 16.0923 12.9878 16.0923 14.0923Z" fill="#D9D9D9" fill-opacity="0.1"/>
<path d="M16.0923 26.0923C16.0923 27.1969 15.1969 28.0923 14.0923 28.0923C12.9877 28.0923 12.0923 27.1969 12.0923 26.0923C12.0923 24.9878 12.9877 24.0923 14.0923 24.0923C15.1969 24.0923 16.0923 24.9878 16.0923 26.0923Z" fill="#D9D9D9" fill-opacity="0.1"/>
<path d="M16.0923 38.0923C16.0923 39.1969 15.1969 40.0923 14.0923 40.0923C12.9877 40.0923 12.0923 39.1969 12.0923 38.0923C12.0923 36.9878 12.9877 36.0923 14.0923 36.0923C15.1969 36.0923 16.0923 36.9878 16.0923 38.0923Z" fill="#D9D9D9" fill-opacity="0.1"/>
<path d="M16.0923 50.0923C16.0923 51.1969 15.1969 52.0923 14.0923 52.0923C12.9877 52.0923 12.0923 51.1969 12.0923 50.0923C12.0923 48.9878 12.9877 48.0923 14.0923 48.0923C15.1969 48.0923 16.0923 48.9878 16.0923 50.0923Z" fill="#D9D9D9" fill-opacity="0.1"/>
<path d="M28.0923 14.0923C28.0923 15.1969 27.1969 16.0923 26.0923 16.0923C24.9877 16.0923 24.0923 15.1969 24.0923 14.0923C24.0923 12.9878 24.9877 12.0923 26.0923 12.0923C27.1969 12.0923 28.0923 12.9878 28.0923 14.0923Z" fill="#D9D9D9" fill-opacity="0.1"/>
<path d="M28.0923 26.0923C28.0923 27.1969 27.1969 28.0923 26.0923 28.0923C24.9877 28.0923 24.0923 27.1969 24.0923 26.0923C24.0923 24.9878 24.9877 24.0923 26.0923 24.0923C27.1969 24.0923 28.0923 24.9878 28.0923 26.0923Z" fill="#D9D9D9" fill-opacity="0.1"/>
<path d="M28.0923 38.0923C28.0923 39.1969 27.1969 40.0923 26.0923 40.0923C24.9877 40.0923 24.0923 39.1969 24.0923 38.0923C24.0923 36.9878 24.9877 36.0923 26.0923 36.0923C27.1969 36.0923 28.0923 36.9878 28.0923 38.0923Z" fill="#D9D9D9" fill-opacity="0.1"/>
<path d="M28.0923 50.0923C28.0923 51.1969 27.1969 52.0923 26.0923 52.0923C24.9877 52.0923 24.0923 51.1969 24.0923 50.0923C24.0923 48.9878 24.9877 48.0923 26.0923 48.0923C27.1969 48.0923 28.0923 48.9878 28.0923 50.0923Z" fill="#D9D9D9" fill-opacity="0.1"/>
<path d="M40.0923 2.09235C40.0923 3.19692 39.1969 4.09235 38.0923 4.09235C36.9877 4.09235 36.0923 3.19692 36.0923 2.09235C36.0923 0.987777 36.9877 0.0923462 38.0923 0.0923462C39.1969 0.0923462 40.0923 0.987777 40.0923 2.09235Z" fill="#D9D9D9" fill-opacity="0.1"/>
<path d="M40.0923 14.0923C40.0923 15.1969 39.1969 16.0923 38.0923 16.0923C36.9877 16.0923 36.0923 15.1969 36.0923 14.0923C36.0923 12.9878 36.9877 12.0923 38.0923 12.0923C39.1969 12.0923 40.0923 12.9878 40.0923 14.0923Z" fill="#D9D9D9" fill-opacity="0.1"/>
<path d="M40.0923 26.0923C40.0923 27.1969 39.1969 28.0923 38.0923 28.0923C36.9877 28.0923 36.0923 27.1969 36.0923 26.0923C36.0923 24.9878 36.9877 24.0923 38.0923 24.0923C39.1969 24.0923 40.0923 24.9878 40.0923 26.0923Z" fill="#D9D9D9" fill-opacity="0.1"/>
<path d="M40.0923 38.0923C40.0923 39.1969 39.1969 40.0923 38.0923 40.0923C36.9877 40.0923 36.0923 39.1969 36.0923 38.0923C36.0923 36.9878 36.9877 36.0923 38.0923 36.0923C39.1969 36.0923 40.0923 36.9878 40.0923 38.0923Z" fill="#D9D9D9" fill-opacity="0.1"/>
<path d="M40.0923 50.0923C40.0923 51.1969 39.1969 52.0923 38.0923 52.0923C36.9877 52.0923 36.0923 51.1969 36.0923 50.0923C36.0923 48.9878 36.9877 48.0923 38.0923 48.0923C39.1969 48.0923 40.0923 48.9878 40.0923 50.0923Z" fill="#D9D9D9" fill-opacity="0.1"/>
<path d="M52.0923 2.09235C52.0923 3.19692 51.1969 4.09235 50.0923 4.09235C48.9877 4.09235 48.0923 3.19692 48.0923 2.09235C48.0923 0.987777 48.9877 0.0923462 50.0923 0.0923462C51.1969 0.0923462 52.0923 0.987777 52.0923 2.09235Z" fill="#D9D9D9" fill-opacity="0.1"/>
<path d="M52.0923 14.0923C52.0923 15.1969 51.1969 16.0923 50.0923 16.0923C48.9877 16.0923 48.0923 15.1969 48.0923 14.0923C48.0923 12.9878 48.9877 12.0923 50.0923 12.0923C51.1969 12.0923 52.0923 12.9878 52.0923 14.0923Z" fill="#D9D9D9" fill-opacity="0.1"/>
<path d="M52.0923 26.0923C52.0923 27.1969 51.1969 28.0923 50.0923 28.0923C48.9877 28.0923 48.0923 27.1969 48.0923 26.0923C48.0923 24.9878 48.9877 24.0923 50.0923 24.0923C51.1969 24.0923 52.0923 24.9878 52.0923 26.0923Z" fill="#D9D9D9" fill-opacity="0.1"/>
<path d="M52.0923 38.0923C52.0923 39.1969 51.1969 40.0923 50.0923 40.0923C48.9877 40.0923 48.0923 39.1969 48.0923 38.0923C48.0923 36.9878 48.9877 36.0923 50.0923 36.0923C51.1969 36.0923 52.0923 36.9878 52.0923 38.0923Z" fill="#D9D9D9" fill-opacity="0.1"/>
<path d="M52.0923 50.0923C52.0923 51.1969 51.1969 52.0923 50.0923 52.0923C48.9877 52.0923 48.0923 51.1969 48.0923 50.0923C48.0923 48.9878 48.9877 48.0923 50.0923 48.0923C51.1969 48.0923 52.0923 48.9878 52.0923 50.0923Z" fill="#D9D9D9" fill-opacity="0.1"/>
</svg>
