<svg width="60" height="52" viewBox="0 0 60 52" fill="none" xmlns="http://www.w3.org/2000/svg">
<path d="M13.0876 42.4462C13.2477 42.6063 13.4073 42.767 13.5646 42.93C14.3885 43.729 15.3512 44.3464 16.3463 44.9077C16.4714 44.9785 16.5964 45.0492 16.7252 45.1221C19.7496 46.8048 22.9124 48.1721 26.1225 49.4542C26.1225 49.593 26.1225 49.7317 26.1225 49.8747C20.5247 51.9029 14.2579 52.2224 8.73987 49.7723C7.32726 49.0917 5.99185 48.2549 4.81812 47.2116C5.22296 46.7721 5.61857 46.4893 6.14307 46.2053C6.29494 46.1222 6.44681 46.0391 6.60328 45.9535C6.76579 45.8657 6.92829 45.7779 7.09572 45.6874C7.43679 45.5011 7.77739 45.314 8.11791 45.1267C8.20441 45.0792 8.29092 45.0318 8.38004 44.9828C9.68401 44.2647 10.9645 43.5056 12.2464 42.749C12.7687 42.4462 12.7687 42.4462 13.0876 42.4462Z" fill="white"/>
<path d="M49.3552 6.72658C49.7515 7.08188 50.1304 7.45394 50.5105 7.82651C50.702 7.99146 50.8946 8.15512 51.0886 8.31708C55.8475 12.4663 58.5143 18.8205 59.4807 24.9261C59.4999 25.046 59.519 25.1659 59.5388 25.2894C60.3935 31.0043 59.7108 39.5188 56.3076 44.3116C56.2446 44.3898 56.1817 44.468 56.1169 44.5486C55.9852 44.4843 55.9852 44.4843 55.8508 44.4187C53.9998 43.5169 52.1406 42.6437 50.2513 41.8249C49.5807 41.5341 48.9166 41.2415 48.2679 40.9044C48.4827 40.3277 48.7506 39.7828 49.0214 39.2311C50.6121 35.9724 51.7872 32.4934 52.0522 28.8506C52.0614 28.7259 52.0706 28.6013 52.0801 28.4728C52.5071 22.1976 51.0668 15.5146 46.9008 10.6213C46.5333 10.2106 46.1553 9.81278 45.7685 9.42029C45.4647 9.08796 45.4647 9.08796 45.4647 8.80764C45.3498 8.7594 45.3498 8.7594 45.2325 8.71018C44.896 8.52283 44.6335 8.29859 44.3497 8.03997C40.0762 4.17303 34.0123 2.54287 28.353 2.75712C26.5588 2.86086 24.8665 3.30338 23.1791 3.90202C23.008 3.96074 22.8369 4.01946 22.6607 4.07996C17.0092 6.16398 12.7489 11.153 10.2455 16.4803C7.51103 22.5628 6.92795 29.4123 9.27139 35.7116C9.8186 37.104 10.516 38.4033 11.2789 39.6884C11.4057 39.9233 11.4057 39.9233 11.5458 40.3438C11.4155 40.4037 11.4155 40.4037 11.2825 40.4648C8.65455 41.6733 6.03435 42.8979 3.41651 44.1281C2.98396 43.724 2.77086 43.2819 2.5405 42.744C2.49834 42.6458 2.45617 42.5476 2.41273 42.4465C0.80664 38.6181 -0.010069 34.6268 9.36877e-05 30.48C0.000216491 30.357 0.000339294 30.234 0.000465818 30.1072C0.00719342 28.0565 0.140736 26.0876 0.613296 24.0851C0.647128 23.9407 0.680959 23.7962 0.715816 23.6473C1.60743 19.9626 3.15474 16.3766 5.37876 13.2928C5.47469 13.1585 5.57063 13.0243 5.66948 12.886C7.5474 10.3203 9.69298 8.04165 12.2466 6.14459C12.3792 6.04395 12.5119 5.94332 12.6485 5.83963C23.2776 -2.0937 39.1351 -2.083 49.3552 6.72658Z" fill="white"/>
<path d="M15.7507 17.4976C16.5981 17.7564 17.3791 18.0685 18.1597 18.4874C18.313 18.5693 18.313 18.5693 18.4693 18.6528C19.4951 19.2136 20.4298 19.8718 21.3571 20.5811C21.4821 20.6763 21.6071 20.7715 21.736 20.8696C22.6317 21.5696 23.4642 22.3349 24.3005 23.104C26.1235 24.768 27.9305 26.3946 30.5097 26.3655C33.0194 26.1826 35.0585 23.9231 36.801 22.2805C38.4686 20.7597 42.0713 17.4976 44.4836 17.4976C44.4094 20.4851 42.4805 22.9465 40.4293 24.9436C39.9743 25.3549 39.4949 25.7349 39.0173 26.1196C34.1743 30.1303 33.256 34.7978 32.3509 40.8168C31.5341 46.2434 31.5341 46.2434 30.6077 48.6132C29.6933 48.5442 29.6933 48.5442 29.3953 48.2266C29.1974 47.898 29.1078 47.6389 29.0254 47.2653C28.9953 47.1289 28.9652 46.9926 28.9342 46.8522C28.9025 46.699 28.8708 46.5459 28.8382 46.3882C28.8033 46.2238 28.7684 46.0595 28.7325 45.8902C28.2709 43.6606 27.9268 41.4068 27.5712 39.1585C26.9068 35.0063 26.1455 30.6363 23.039 27.5891C22.9422 27.4874 22.8453 27.3857 22.7456 27.2809C22.1356 26.6447 21.471 26.0969 20.786 25.5437C18.2378 23.4479 16.266 21.1329 15.7507 17.7779C15.7507 17.6854 15.7507 17.5929 15.7507 17.4976Z" fill="white"/>
<path d="M49.6695 31.2333C49.8083 31.372 49.8083 31.372 49.9498 31.5136C48.2894 36.9636 45.0109 42.3433 39.8586 45.1064C37.8567 46.1264 35.7936 46.7631 33.5511 46.9313C33.7934 44.9808 34.0887 43.0383 34.3969 41.0974C34.4403 40.8231 34.4832 40.5487 34.5255 40.2742C34.5861 39.8823 34.6487 39.4907 34.7118 39.0992C34.7297 38.9808 34.7477 38.8623 34.7662 38.7403C35.045 37.05 36.2957 36.1931 37.6108 35.2337C41.09 32.7505 45.2833 30.801 49.6695 31.2333Z" fill="white"/>
<path d="M16.8769 32.1077C19.2533 32.9253 21.366 34.2223 23.3122 35.7989C23.7269 36.1394 23.7269 36.1394 24.1455 36.4045C24.9041 36.9498 25.2057 37.4456 25.3687 38.346C25.3979 38.5286 25.3979 38.5286 25.4278 38.7149C25.4503 38.8437 25.4728 38.9724 25.4959 39.105C25.5673 39.5175 25.6349 39.9305 25.7021 40.3437C25.7473 40.6142 25.7925 40.8847 25.8379 41.1552C25.9496 41.8288 26.0575 42.503 26.1635 43.1775C26.229 43.5936 26.2954 44.0095 26.3618 44.4254C26.404 44.6916 26.4462 44.9579 26.4883 45.2242C26.508 45.3477 26.5277 45.4712 26.548 45.5984C26.5658 45.7123 26.5836 45.8263 26.602 45.9437C26.6178 46.0434 26.6335 46.1432 26.6497 46.2459C26.6832 46.5108 26.6832 46.5108 26.6832 46.9313C22.828 46.771 19.3866 44.8512 16.5916 42.306C16.4548 42.184 16.4548 42.184 16.3151 42.0596C13.5354 39.4441 10.9685 35.1293 10.2844 31.3735C11.995 30.5181 15.1594 31.549 16.8769 32.1077Z" fill="white"/>
<path d="M46.8663 42.8667C47.3691 43.057 47.8303 43.2809 48.2986 43.5445C48.4394 43.6236 48.5803 43.7026 48.7254 43.7841C48.8751 43.8687 49.0247 43.9533 49.179 44.0405C49.3336 44.1276 49.4883 44.2147 49.6476 44.3044C50.1224 44.5721 50.5969 44.8405 51.0711 45.1093C51.2142 45.1903 51.3574 45.2713 51.5048 45.3548C51.9007 45.5791 52.2963 45.8039 52.6917 46.0291C52.8676 46.129 52.8676 46.129 53.0471 46.231C53.754 46.6351 54.4488 47.0548 55.1358 47.492C52.7004 50.171 48.6704 51.4016 45.1844 51.837C41.4016 52.0022 36.9607 52.0455 33.5511 50.155C33.9564 49.8273 34.3436 49.6166 34.8256 49.4203C34.9681 49.3615 35.1106 49.3027 35.2573 49.2421C35.4112 49.1791 35.565 49.1161 35.7235 49.0513C41.7395 46.686 41.7395 46.686 46.8663 42.8667Z" fill="white"/>
<path d="M32.8858 13.613C33.8663 14.281 34.509 15.2327 34.8125 16.3763C34.9568 17.6443 34.9579 18.9218 34.2518 20.0204C34.1781 20.1508 34.1781 20.1508 34.1029 20.2838C33.4943 21.2623 32.4626 21.8795 31.3703 22.1968C29.9619 22.4694 28.7275 22.2287 27.4885 21.5222C26.508 20.8543 25.8653 19.9025 25.5619 18.759C25.4175 17.4909 25.4164 16.2135 26.1225 15.1148C26.1716 15.0279 26.2208 14.941 26.2714 14.8515C26.8801 13.873 27.9117 13.2557 29.004 12.9385C30.4124 12.6658 31.6468 12.9065 32.8858 13.613Z" fill="white"/>
</svg>
