<svg width="181" height="52" viewBox="0 0 181 52" fill="none" xmlns="http://www.w3.org/2000/svg">
<path d="M49.3552 6.72658C49.7515 7.08188 50.1304 7.45394 50.5105 7.82651C50.702 7.99146 50.8946 8.15512 51.0886 8.31708C55.8475 12.4663 58.5143 18.8205 59.4807 24.9261C59.4999 25.046 59.519 25.1659 59.5388 25.2894C60.3935 31.0043 59.7108 39.5188 56.3076 44.3116C56.2446 44.3898 56.1817 44.468 56.1169 44.5486C55.9852 44.4843 55.9852 44.4843 55.8508 44.4187C53.9998 43.5169 52.1406 42.6437 50.2513 41.8249C49.5807 41.5341 48.9166 41.2415 48.2679 40.9044C48.4827 40.3277 48.7506 39.7828 49.0214 39.2311C50.6121 35.9724 51.7872 32.4934 52.0522 28.8506C52.0614 28.7259 52.0706 28.6013 52.0801 28.4728C52.5071 22.1976 51.0668 15.5146 46.9008 10.6213C46.5333 10.2106 46.1553 9.81278 45.7685 9.42029C45.4647 9.08796 45.4647 9.08796 45.4647 8.80764C45.3498 8.7594 45.3498 8.7594 45.2325 8.71018C44.896 8.52283 44.6335 8.29858 44.3497 8.03997C40.0762 4.17303 34.0123 2.54287 28.353 2.75712C26.5588 2.86086 24.8665 3.30338 23.1791 3.90202C23.008 3.96074 22.837 4.01946 22.6607 4.07996C17.0092 6.16398 12.7489 11.153 10.2455 16.4803C7.51103 22.5628 6.92795 29.4123 9.27139 35.7116C9.8186 37.104 10.516 38.4033 11.2789 39.6884C11.4057 39.9233 11.4057 39.9233 11.5458 40.3438C11.4155 40.4037 11.4155 40.4037 11.2825 40.4648C8.65455 41.6733 6.03435 42.8979 3.41651 44.1281C2.98396 43.724 2.77086 43.2819 2.5405 42.744C2.49834 42.6458 2.45617 42.5476 2.41273 42.4465C0.80664 38.6181 -0.010069 34.6268 9.36877e-05 30.48C0.000216491 30.357 0.000339294 30.234 0.000465818 30.1072C0.00719342 28.0565 0.140736 26.0876 0.613296 24.0851C0.647128 23.9407 0.680959 23.7962 0.715816 23.6473C1.60743 19.9626 3.15474 16.3766 5.37876 13.2928C5.47469 13.1585 5.57063 13.0243 5.66948 12.886C7.5474 10.3203 9.69298 8.04165 12.2466 6.14459C12.3792 6.04395 12.5119 5.94332 12.6485 5.83963C23.2776 -2.0937 39.1351 -2.083 49.3552 6.72658Z" fill="#00184A"/>
<path d="M15.7507 17.4976C16.5981 17.7564 17.3791 18.0685 18.1597 18.4875C18.313 18.5693 18.313 18.5693 18.4693 18.6528C19.4951 19.2136 20.4298 19.8718 21.3571 20.5811C21.4821 20.6763 21.6071 20.7716 21.736 20.8697C22.6317 21.5696 23.4642 22.3349 24.3005 23.104C26.1235 24.768 27.9305 26.3946 30.5097 26.3655C33.0194 26.1826 35.0585 23.9231 36.801 22.2806C38.4686 20.7597 42.0713 17.4976 44.4836 17.4976C44.4094 20.4851 42.4805 22.9465 40.4293 24.9436C39.9743 25.355 39.4949 25.735 39.0173 26.1197C34.1743 30.1303 33.256 34.7978 32.3509 40.8168C31.5341 46.2434 31.5341 46.2434 30.6077 48.6132C29.6933 48.5442 29.6933 48.5442 29.3953 48.2266C29.1974 47.898 29.1078 47.6389 29.0254 47.2653C28.9953 47.129 28.9652 46.9926 28.9342 46.8522C28.9025 46.6991 28.8708 46.5459 28.8382 46.3882C28.8033 46.2239 28.7684 46.0595 28.7325 45.8902C28.2709 43.6607 27.9268 41.4069 27.5712 39.1585C26.9068 35.0064 26.1455 30.6363 23.039 27.5892C22.9422 27.4874 22.8453 27.3857 22.7456 27.2809C22.1356 26.6447 21.471 26.0969 20.786 25.5437C18.2378 23.448 16.266 21.1329 15.7507 17.7779C15.7507 17.6854 15.7507 17.5929 15.7507 17.4976Z" fill="#001942"/>
<path d="M49.6695 31.2333C49.8083 31.3721 49.8083 31.3721 49.9498 31.5136C48.2894 36.9637 45.0109 42.3433 39.8586 45.1064C37.8567 46.1264 35.7936 46.7632 33.5511 46.9313C33.7934 44.9809 34.0887 43.0384 34.3969 41.0974C34.4403 40.8231 34.4832 40.5487 34.5255 40.2742C34.5861 39.8823 34.6487 39.4908 34.7118 39.0993C34.7297 38.9808 34.7477 38.8624 34.7662 38.7404C35.045 37.05 36.2957 36.1931 37.6108 35.2337C41.09 32.7506 45.2833 30.801 49.6695 31.2333Z" fill="#008C1C"/>
<path d="M16.8769 32.1077C19.2533 32.9253 21.366 34.2223 23.3122 35.7989C23.7269 36.1394 23.7269 36.1394 24.1455 36.4045C24.9041 36.9498 25.2057 37.4456 25.3687 38.346C25.3979 38.5286 25.3979 38.5286 25.4278 38.7149C25.4503 38.8437 25.4728 38.9724 25.4959 39.105C25.5673 39.5175 25.6349 39.9305 25.7021 40.3437C25.7473 40.6142 25.7925 40.8847 25.8379 41.1552C25.9496 41.8288 26.0575 42.503 26.1635 43.1775C26.229 43.5936 26.2954 44.0095 26.3618 44.4254C26.404 44.6916 26.4462 44.9579 26.4883 45.2242C26.508 45.3477 26.5277 45.4712 26.548 45.5984C26.5658 45.7123 26.5836 45.8263 26.602 45.9437C26.6178 46.0434 26.6335 46.1432 26.6497 46.2459C26.6832 46.5108 26.6832 46.5108 26.6832 46.9313C22.828 46.771 19.3866 44.8512 16.5916 42.306C16.4548 42.184 16.4548 42.184 16.3151 42.0596C13.5354 39.4441 10.9685 35.1293 10.2844 31.3735C11.995 30.5181 15.1594 31.549 16.8769 32.1077Z" fill="#008C1C"/>
<path d="M46.8663 42.8667C47.3691 43.057 47.8303 43.2809 48.2986 43.5445C48.4394 43.6235 48.5803 43.7026 48.7254 43.784C48.8751 43.8687 49.0247 43.9533 49.179 44.0405C49.3336 44.1276 49.4883 44.2147 49.6476 44.3044C50.1224 44.5721 50.5969 44.8405 51.0711 45.1092C51.2142 45.1902 51.3574 45.2713 51.5048 45.3547C51.9007 45.5791 52.2963 45.8039 52.6917 46.029C52.8676 46.129 52.8676 46.129 53.0471 46.231C53.754 46.6351 54.4488 47.0548 55.1358 47.492C52.7004 50.1709 48.6704 51.4015 45.1844 51.8369C41.4016 52.0021 36.9607 52.0455 33.5511 50.155C33.9564 49.8273 34.3436 49.6165 34.8256 49.4203C34.9681 49.3614 35.1106 49.3026 35.2573 49.242C35.4112 49.1791 35.565 49.1161 35.7235 49.0513C41.7395 46.686 41.7395 46.686 46.8663 42.8667Z" fill="#008C1C"/>
<path d="M13.0876 42.4462C13.2477 42.6063 13.4073 42.767 13.5646 42.9299C14.3885 43.729 15.3512 44.3464 16.3463 44.9077C16.4713 44.9785 16.5964 45.0492 16.7252 45.1221C19.7496 46.8048 22.9124 48.1721 26.1225 49.4542C26.1225 49.5929 26.1225 49.7317 26.1225 49.8747C20.5247 51.9029 14.2579 52.2224 8.73987 49.7723C7.32726 49.0917 5.99185 48.2549 4.81812 47.2116C5.22296 46.7721 5.61857 46.4893 6.14307 46.2053C6.29494 46.1222 6.44681 46.0391 6.60328 45.9535C6.76579 45.8657 6.92829 45.7779 7.09572 45.6874C7.43679 45.5011 7.77739 45.314 8.11791 45.1267C8.20441 45.0792 8.29092 45.0317 8.38004 44.9828C9.68401 44.2647 10.9645 43.5056 12.2464 42.749C12.7687 42.4462 12.7687 42.4462 13.0876 42.4462Z" fill="#008C1C"/>
<path d="M32.8858 13.613C33.8663 14.281 34.509 15.2327 34.8125 16.3763C34.9568 17.6443 34.9579 18.9218 34.2518 20.0205C34.1781 20.1508 34.1781 20.1508 34.1029 20.2838C33.4943 21.2623 32.4626 21.8795 31.3703 22.1968C29.9619 22.4694 28.7275 22.2287 27.4885 21.5223C26.508 20.8543 25.8653 19.9025 25.5619 18.759C25.4175 17.491 25.4164 16.2135 26.1225 15.1148C26.1716 15.0279 26.2208 14.941 26.2714 14.8515C26.8801 13.873 27.9117 13.2558 29.004 12.9385C30.4124 12.6659 31.6468 12.9066 32.8858 13.613Z" fill="#00184A"/>
<path d="M83.308 17.9181C84.7096 17.9181 84.7096 17.9181 85.1296 18.2783C85.2481 18.4412 85.362 18.6076 85.4717 18.7765C85.6008 18.9573 85.73 19.138 85.8594 19.3186C85.9238 19.4118 85.9882 19.5049 86.0546 19.6009C86.3685 20.0466 86.7089 20.4704 87.0485 20.8965C87.166 21.0461 87.2833 21.1957 87.4006 21.3454C87.9022 21.9807 88.4088 22.6121 88.9144 23.2442C88.9607 21.4865 89.0069 19.7289 89.0546 17.9181C89.6096 17.9181 90.1647 17.9181 90.7365 17.9181C90.7365 20.7395 90.7365 23.5609 90.7365 26.4679C89.3349 26.4679 89.3349 26.4679 88.915 26.1383C88.7965 25.9887 88.6826 25.8355 88.5728 25.6795C88.5099 25.5979 88.4469 25.5164 88.3821 25.4324C88.2496 25.2601 88.1189 25.0864 87.99 24.9114C87.7315 24.5626 87.4614 24.2239 87.1911 23.8843C87.0072 23.6525 86.8253 23.4194 86.6439 23.1856C86.1446 22.5469 85.6366 21.915 85.1301 21.2819C85.0838 22.9933 85.0376 24.7046 84.9899 26.4679C84.4349 26.4679 83.8799 26.4679 83.308 26.4679C83.308 23.6464 83.308 20.825 83.308 17.9181Z" fill="#00184A"/>
<path d="M122.273 17.9181C122.993 17.9065 123.712 17.8949 124.454 17.883C124.679 17.8779 124.904 17.8728 125.136 17.8676C125.316 17.8662 125.496 17.8648 125.681 17.8633C125.864 17.8604 126.046 17.8574 126.235 17.8544C127.184 17.9699 127.824 18.4725 128.408 19.2107C128.896 19.9184 128.895 20.5426 128.786 21.3668C128.608 22.2761 128.167 22.7086 127.459 23.2442C127.943 24.1484 128.443 25.0372 128.986 25.9078C129.141 26.1875 129.141 26.1875 129.141 26.4679C128.475 26.6515 127.978 26.6918 127.318 26.4679C126.677 25.8126 125.637 24.4743 125.637 23.5245C125.082 23.5245 124.526 23.5245 123.955 23.5245C123.955 24.4958 123.955 25.4671 123.955 26.4679C123.4 26.4679 122.845 26.4679 122.273 26.4679C122.273 23.6464 122.273 20.825 122.273 17.9181ZM123.955 19.3197C123.955 20.2447 123.955 21.1698 123.955 22.1229C124.359 22.1344 124.764 22.146 125.181 22.1579C125.308 22.163 125.434 22.1681 125.565 22.1734C126.24 22.1829 126.24 22.1829 126.831 21.8798C127.052 21.5408 127.127 21.3321 127.161 20.9315C127.172 20.826 127.183 20.7205 127.195 20.6118C127.175 20.2315 127.123 20.0499 126.898 19.7402C126.259 19.3182 125.698 19.2655 124.953 19.2934C124.624 19.3021 124.294 19.3107 123.955 19.3197Z" fill="#00184A"/>
<path d="M166.423 17.9181C171.198 17.9181 171.198 17.9181 172.361 18.8072C173.422 19.8813 173.612 21.0209 173.616 22.4625C173.598 23.5378 173.374 24.3581 172.669 25.1889C172.551 25.2872 172.432 25.3855 172.31 25.4867C172.206 25.585 172.102 25.6833 171.995 25.7846C170.303 26.9383 168.439 26.4679 166.423 26.4679C166.423 23.6464 166.423 20.825 166.423 17.9181ZM167.965 19.3197C167.965 21.216 167.965 23.1124 167.965 25.0662C169.675 25.1705 169.675 25.1705 171.122 24.4503C171.896 23.5669 171.975 22.8092 171.943 21.6624C171.871 20.9609 171.682 20.5205 171.189 20.0205C170.113 19.1639 169.436 19.3197 167.965 19.3197Z" fill="#00184A"/>
<path d="M135.896 18.1841C136.985 18.85 137.688 19.7275 138.155 20.9052C138.418 22.3174 138.292 23.6121 137.474 24.827C136.722 25.7436 135.834 26.3686 134.656 26.5768C133.487 26.6876 132.493 26.4345 131.523 25.767C130.402 24.7503 129.878 23.6911 129.789 22.1842C129.803 21.0022 130.33 19.8234 131.138 18.9643C132.428 17.8825 134.32 17.4618 135.896 18.1841ZM132.189 20.1957C131.626 20.8986 131.46 21.638 131.488 22.5368C131.62 23.6197 132.126 24.2161 132.951 24.8998C133.622 25.1832 134.344 25.2082 135.036 24.9644C135.724 24.5996 136.134 24.1305 136.464 23.4369C136.719 22.2867 136.658 21.3529 136.078 20.315C135.685 19.7641 135.248 19.5334 134.607 19.3197C133.568 19.2516 132.919 19.4109 132.189 20.1957Z" fill="#00184A"/>
<path d="M174.973 17.9181C176.916 17.9181 178.858 17.9181 180.86 17.9181C180.86 18.3806 180.86 18.8431 180.86 19.3197C179.472 19.3197 178.085 19.3197 176.655 19.3197C176.655 20.0135 176.655 20.7073 176.655 21.4221C177.858 21.4221 179.06 21.4221 180.299 21.4221C180.299 21.8846 180.299 22.3471 180.299 22.8237C179.097 22.8237 177.894 22.8237 176.655 22.8237C176.655 23.5637 176.655 24.3038 176.655 25.0662C178.089 25.0662 179.523 25.0662 181 25.0662C181 25.5288 181 25.9913 181 26.4679C179.011 26.4679 177.022 26.4679 174.973 26.4679C174.973 23.6464 174.973 20.825 174.973 17.9181Z" fill="#00184A"/>
<path d="M157.173 17.9181C157.728 17.9181 158.283 17.9181 158.855 17.9181C158.857 18.0735 158.859 18.229 158.861 18.3892C158.869 18.9702 158.88 19.5511 158.891 20.132C158.896 20.3827 158.9 20.6333 158.903 20.884C158.908 21.2459 158.915 21.6077 158.923 21.9696C158.924 22.0803 158.925 22.191 158.926 22.3051C158.95 23.2257 159.09 24.0558 159.783 24.7158C160.547 25.0553 161.193 24.991 161.999 24.8297C162.378 24.6773 162.378 24.6773 162.534 24.3392C162.568 24.2091 162.603 24.079 162.639 23.945C162.686 23.7997 162.733 23.6544 162.782 23.5047C162.933 22.9093 162.968 22.375 162.977 21.7643C162.98 21.6537 162.983 21.543 162.985 21.4291C162.994 21.0793 163 20.7295 163.007 20.3796C163.012 20.141 163.018 19.9024 163.023 19.6638C163.037 19.0819 163.048 18.5 163.059 17.9181C163.614 17.9181 164.169 17.9181 164.741 17.9181C164.748 18.5685 164.753 19.2189 164.757 19.8694C164.758 20.09 164.76 20.3106 164.762 20.5312C164.801 24.1285 164.801 24.1285 163.76 25.4867C162.951 26.3105 162.102 26.6013 160.963 26.6118C159.792 26.5544 158.916 26.3199 158.11 25.4429C157.286 24.3967 157.151 23.3018 157.159 22.0106C157.159 21.8934 157.159 21.7762 157.16 21.6554C157.16 21.2827 157.162 20.91 157.164 20.5373C157.165 20.2839 157.165 20.0305 157.166 19.7771C157.167 19.1574 157.17 18.5377 157.173 17.9181Z" fill="#00184A"/>
<path d="M147.782 18.4787C147.921 18.5712 148.059 18.6637 148.202 18.759C148.047 19.2477 147.885 19.7086 147.642 20.1606C147.552 20.1231 147.463 20.0855 147.37 20.0468C146.076 19.524 146.076 19.524 144.698 19.4598C144.296 19.6519 144.296 19.6519 143.998 19.8803C144.044 20.2041 144.09 20.5279 144.138 20.8614C144.36 20.9435 144.581 21.0252 144.803 21.1067C145.014 21.1842 145.014 21.1842 145.228 21.2633C145.524 21.3673 145.822 21.4647 146.122 21.5546C147.807 22.0609 147.807 22.0609 148.343 22.8237C148.639 23.526 148.686 24.1654 148.483 24.8998C148.244 25.4866 147.923 25.8865 147.361 26.1875C145.875 26.812 144.525 26.6983 143.016 26.1875C142.574 25.9775 142.173 25.7445 141.755 25.4867C141.986 25.0242 142.218 24.5617 142.456 24.0851C142.613 24.1586 142.613 24.1586 142.773 24.2335C142.911 24.2973 143.049 24.3611 143.192 24.4268C143.328 24.4902 143.465 24.5536 143.606 24.619C144.197 24.8711 144.686 24.9505 145.329 24.9611C145.526 24.9666 145.526 24.9666 145.728 24.9721C146.156 24.9191 146.343 24.7902 146.661 24.5056C146.703 24.1007 146.703 24.1007 146.52 23.6647C146.084 23.3965 145.606 23.2568 145.119 23.104C143.004 22.4318 143.004 22.4318 142.333 21.6936C142.058 20.9742 142.027 20.1766 142.277 19.4418C142.639 18.7608 143.11 18.3274 143.822 18.0467C145.177 17.6644 146.531 17.8719 147.782 18.4787Z" fill="#00184A"/>
<path d="M114.704 17.9181C119.463 17.9181 119.463 17.9181 120.319 18.764C120.414 18.9046 120.414 18.9046 120.512 19.0481C120.578 19.1422 120.645 19.2364 120.713 19.3334C121.124 20.0269 121.087 20.7816 121.011 21.5622C120.766 22.3951 120.309 22.893 119.61 23.3843C119.206 23.519 118.954 23.5408 118.535 23.5382C118.422 23.5378 118.309 23.5375 118.193 23.5371C118.051 23.5358 117.908 23.5346 117.761 23.5332C117.08 23.5289 117.08 23.5289 116.386 23.5245C116.386 24.4958 116.386 25.4671 116.386 26.4679C115.831 26.4679 115.276 26.4679 114.704 26.4679C114.704 23.6464 114.704 20.825 114.704 17.9181ZM116.386 19.3197C116.386 20.2447 116.386 21.1698 116.386 22.1229C116.742 22.1373 117.097 22.1518 117.463 22.1667C117.574 22.1731 117.685 22.1794 117.799 22.186C118.365 22.1971 118.577 22.1615 119.047 21.8092C119.41 21.3117 119.423 21.057 119.39 20.4629C119.3 20.0114 119.104 19.7665 118.769 19.4598C118.008 19.2063 117.18 19.3124 116.386 19.3197Z" fill="#00184A"/>
<path d="M151.987 17.9181C152.495 17.9181 153.004 17.9181 153.528 17.9181C154.247 19.6831 154.939 21.458 155.626 23.2357C155.723 23.4871 155.82 23.7384 155.917 23.9896C156.056 24.3472 156.194 24.705 156.332 25.063C156.374 25.1722 156.417 25.2814 156.46 25.394C156.752 26.1555 156.752 26.1555 156.752 26.4679C156.197 26.4679 155.642 26.4679 155.07 26.4679C155.021 26.3497 154.972 26.2315 154.922 26.1098C154.826 25.8794 154.826 25.8794 154.729 25.6444C154.633 25.4151 154.633 25.4151 154.536 25.1812C154.44 24.9533 154.34 24.7269 154.229 24.5056C153.258 24.5056 152.287 24.5056 151.286 24.5056C151.055 25.1531 150.823 25.8007 150.585 26.4679C149.984 26.4679 149.383 26.4679 148.763 26.4679C149.813 23.6085 150.894 20.7615 151.987 17.9181ZM152.687 19.8803C152.5 20.3881 152.313 20.8963 152.127 21.4046C152.073 21.5493 152.02 21.694 151.965 21.8431C151.914 21.9813 151.864 22.1195 151.811 22.2619C151.765 22.3897 151.718 22.5174 151.669 22.649C151.552 22.953 151.552 22.953 151.566 23.2442C152.353 23.2442 153.139 23.2442 153.949 23.2442C153.655 22.085 153.274 20.9894 152.828 19.8803C152.781 19.8803 152.735 19.8803 152.687 19.8803Z" fill="#00184A"/>
<path d="M106.575 17.9181C107.083 17.9181 107.592 17.9181 108.116 17.9181C108.496 18.9086 108.875 19.8991 109.253 20.8898C109.429 21.3499 109.605 21.8099 109.781 22.2699C109.984 22.7993 110.186 23.3289 110.389 23.8585C110.483 24.1049 110.483 24.1049 110.579 24.3563C110.638 24.5106 110.697 24.6648 110.758 24.8238C110.835 25.0264 110.835 25.0264 110.914 25.2331C111.065 25.6415 111.202 26.0548 111.34 26.4679C110.739 26.4679 110.138 26.4679 109.518 26.4679C109.287 25.8203 109.056 25.1728 108.817 24.5056C107.8 24.4594 106.782 24.4131 105.734 24.3654C105.641 24.7817 105.549 25.198 105.453 25.6269C105.226 26.1262 105.226 26.1262 105.033 26.4679C104.478 26.4679 103.923 26.4679 103.351 26.4679C104.025 24.4976 104.751 22.5533 105.515 20.6162C105.618 20.3521 105.722 20.088 105.825 19.8239C106.075 19.1884 106.324 18.5532 106.575 17.9181ZM107.275 19.8803C107.087 20.3617 106.901 20.8436 106.715 21.3257C106.661 21.4626 106.608 21.5994 106.553 21.7404C106.477 21.9376 106.477 21.9376 106.399 22.1388C106.352 22.2599 106.306 22.381 106.257 22.5058C106.133 22.8347 106.133 22.8347 106.154 23.2442C106.94 23.2442 107.727 23.2442 108.537 23.2442C108.167 22.1341 107.797 21.024 107.416 19.8803C107.369 19.8803 107.323 19.8803 107.275 19.8803Z" fill="#00184A"/>
<path d="M101.608 18.2071C102.236 18.5719 102.639 19.021 103.071 19.6C102.633 20.0757 102.291 20.3858 101.669 20.5811C101.633 20.4951 101.598 20.4091 101.561 20.3205C101.27 19.8124 100.807 19.645 100.267 19.4598C99.5248 19.3337 98.9327 19.462 98.3052 19.8803C97.6063 20.5792 97.3705 21.2015 97.2803 22.1754C97.3589 23.0876 97.5299 23.8138 98.2351 24.4355C98.8216 24.8985 99.3486 24.9744 100.079 24.9661C100.861 24.871 101.435 24.3808 101.949 23.8048C102.366 24.0361 102.782 24.2673 103.211 24.5056C102.786 25.4709 102.197 25.8878 101.249 26.3277C100.102 26.752 98.9685 26.6766 97.8585 26.1788C96.6268 25.504 95.9502 24.4324 95.5606 23.1067C95.3243 21.9648 95.5296 20.9075 96.0627 19.8803C97.2942 18.0984 99.5593 17.2547 101.608 18.2071Z" fill="#00184A"/>
<path d="M70.2967 18.3194C70.9331 18.7143 71.323 19.0737 71.6747 19.7402C71.4943 19.8811 71.3131 20.0211 71.1316 20.1606C71.0308 20.2387 70.93 20.3167 70.8261 20.3972C70.5534 20.5811 70.5534 20.5811 70.2731 20.5811C70.1691 20.4481 70.065 20.3152 69.9578 20.1782C69.4808 19.5868 69.001 19.4898 68.2583 19.4073C67.6195 19.4734 67.145 19.6345 66.6289 20.0205C65.9282 20.9064 65.8042 21.8723 65.9281 22.9638C66.1473 23.6694 66.4496 24.3106 67.0757 24.7334C67.7811 25.0561 68.5814 25.0811 69.3095 24.8188C69.7872 24.568 70.1056 24.3259 70.2731 23.8048C70.905 23.9811 71.3231 24.2118 71.8149 24.6458C70.9102 25.7994 70.1364 26.3989 68.67 26.5993C67.497 26.6648 66.5292 26.3313 65.6221 25.5891C64.5739 24.5905 64.0931 23.5823 64.0447 22.1404C64.0711 20.968 64.3663 19.8771 65.2273 19.0394C66.7178 17.9023 68.5427 17.3919 70.2967 18.3194Z" fill="#00184A"/>
<path d="M72.796 17.9181C73.351 17.9181 73.906 17.9181 74.4779 17.9181C74.4779 20.277 74.4779 22.6359 74.4779 25.0662C75.9117 25.0662 77.3456 25.0662 78.8229 25.0662C78.8229 25.5288 78.8229 25.9913 78.8229 26.4679C76.834 26.4679 74.8451 26.4679 72.796 26.4679C72.796 23.6464 72.796 20.825 72.796 17.9181Z" fill="#00184A"/>
<path d="M92.5587 17.9181C93.1137 17.9181 93.6687 17.9181 94.2406 17.9181C94.2406 20.7395 94.2406 23.5609 94.2406 26.4679C93.6855 26.4679 93.1305 26.4679 92.5587 26.4679C92.5587 23.6464 92.5587 20.825 92.5587 17.9181Z" fill="#00184A"/>
<path d="M79.8041 17.9181C80.3591 17.9181 80.9141 17.9181 81.486 17.9181C81.486 20.7395 81.486 23.5609 81.486 26.4679C80.931 26.4679 80.3759 26.4679 79.8041 26.4679C79.8041 23.6464 79.8041 20.825 79.8041 17.9181Z" fill="#00184A"/>
<path d="M64.3864 28.9907C64.7102 28.9907 65.0339 28.9907 65.3675 28.9907C65.6913 29.6383 66.015 30.2858 66.3486 30.953C66.6785 30.5132 66.9088 30.1432 67.1458 29.6565C67.207 29.5315 67.2683 29.4065 67.3314 29.2776C67.3771 29.183 67.4228 29.0883 67.4699 28.9907C67.7937 28.9907 68.1175 28.9907 68.451 28.9907C68.451 30.2396 68.451 31.4884 68.451 32.7751C68.1735 32.7751 67.896 32.7751 67.6101 32.7751C67.5638 32.0813 67.5176 31.3875 67.4699 30.6727C67.1924 31.1815 66.9149 31.6902 66.629 32.2144C66.0683 32.0743 66.0683 32.0743 65.8603 31.754C65.696 31.3936 65.5318 31.0331 65.3675 30.6727C65.3213 31.3665 65.275 32.0603 65.2273 32.7751C64.9498 32.7751 64.6723 32.7751 64.3864 32.7751C64.3864 31.5263 64.3864 30.2774 64.3864 28.9907Z" fill="#008C1C"/>
<path d="M118.488 28.9907C119.189 28.9907 119.189 28.9907 119.585 29.3745C119.721 29.5398 119.855 29.7069 119.986 29.8755C120.088 30.0006 120.088 30.0006 120.192 30.1282C120.483 30.4869 120.755 30.849 121.011 31.2333C121.057 30.4933 121.104 29.7532 121.151 28.9907C121.429 28.9907 121.706 28.9907 121.992 28.9907C121.992 30.2396 121.992 31.4884 121.992 32.7751C121.151 32.7751 121.151 32.7751 120.844 32.4931C120.754 32.3694 120.665 32.2456 120.573 32.1181C120.483 31.9961 120.393 31.8742 120.301 31.7485C120.211 31.6248 120.122 31.501 120.03 31.3735C119.845 31.1422 119.66 30.9109 119.469 30.6727C119.423 31.3665 119.377 32.0603 119.329 32.7751C119.052 32.7751 118.774 32.7751 118.488 32.7751C118.488 31.5263 118.488 30.2774 118.488 28.9907Z" fill="#008C1C"/>
<path d="M83.1678 28.9907C83.8686 28.9907 83.8686 28.9907 84.1155 29.1966C84.2245 29.3375 84.2245 29.3375 84.3357 29.4813C84.4156 29.5825 84.4956 29.6837 84.5779 29.7879C84.6995 29.9483 84.6995 29.9483 84.8235 30.112C84.9491 30.2725 84.9491 30.2725 85.0773 30.4362C85.2837 30.7004 85.4875 30.9667 85.6907 31.2333C85.737 30.4933 85.7832 29.7532 85.8309 28.9907C86.0622 28.9907 86.2934 28.9907 86.5317 28.9907C86.5317 30.2396 86.5317 31.4884 86.5317 32.7751C85.8309 32.7751 85.8309 32.7751 85.5013 32.4575C85.3961 32.3195 85.291 32.1815 85.1827 32.0392C85.0768 31.9026 84.9709 31.7661 84.8618 31.6253C84.7653 31.496 84.6689 31.3666 84.5695 31.2333C84.4307 31.0483 84.2919 30.8633 84.149 30.6727C84.1027 31.3665 84.0565 32.0603 84.0088 32.7751C83.7313 32.7751 83.4538 32.7751 83.1678 32.7751C83.1678 31.5263 83.1678 30.2774 83.1678 28.9907Z" fill="#008C1C"/>
<path d="M151.006 28.9908C151.387 28.9763 151.769 28.9618 152.162 28.947C152.281 28.9406 152.401 28.9342 152.523 28.9276C153.093 28.9172 153.309 28.9188 153.746 29.316C153.949 29.6916 153.949 29.6916 153.931 30.1383C153.809 30.5325 153.809 30.5325 153.529 30.8128C153.621 30.914 153.714 31.0152 153.809 31.1194C154.089 31.5136 154.089 31.5136 154.159 31.8728C154.061 32.3507 153.924 32.4861 153.529 32.7751C153.094 32.8442 152.671 32.8278 152.232 32.8101C151.827 32.7986 151.423 32.787 151.006 32.7751C151.006 31.5263 151.006 30.2774 151.006 28.9908ZM151.706 29.5514C151.706 29.8752 151.706 30.1989 151.706 30.5325C152.169 30.5325 152.631 30.5325 153.108 30.5325C153.295 30.112 153.295 30.112 153.108 29.6916C152.787 29.5313 152.604 29.5369 152.25 29.5426C151.981 29.547 151.981 29.547 151.706 29.5514ZM151.706 31.2333C151.706 31.5571 151.706 31.8809 151.706 32.2144C152.169 32.2144 152.631 32.2144 153.108 32.2144C153.201 32.0294 153.293 31.8444 153.388 31.6538C153.296 31.515 153.203 31.3763 153.108 31.2333C152.766 31.1823 152.766 31.1823 152.39 31.207C152.262 31.2108 152.135 31.2146 152.003 31.2185C151.905 31.2234 151.807 31.2283 151.706 31.2333Z" fill="#008C1C"/>
<path d="M161.378 28.9907C161.655 28.9907 161.933 28.9907 162.218 28.9907C162.218 29.4995 162.218 30.0083 162.218 30.5325C162.774 30.5325 163.329 30.5325 163.9 30.5325C163.9 30.0237 163.9 29.5149 163.9 28.9907C164.178 28.9907 164.455 28.9907 164.741 28.9907C164.741 30.2396 164.741 31.4884 164.741 32.7751C164.464 32.7751 164.186 32.7751 163.9 32.7751C163.9 32.2663 163.9 31.7575 163.9 31.2333C163.345 31.2333 162.79 31.2333 162.218 31.2333C162.218 31.7421 162.218 32.2509 162.218 32.7751C161.941 32.7751 161.663 32.7751 161.378 32.7751C161.378 31.5263 161.378 30.2774 161.378 28.9907Z" fill="#008C1C"/>
<path d="M143.717 28.9907C144.073 28.9763 144.428 28.9618 144.795 28.9469C144.905 28.9406 145.016 28.9342 145.13 28.9276C145.698 28.9165 145.908 28.9518 146.379 29.3078C146.795 29.8749 146.738 30.1258 146.661 30.8128C146.522 31.021 146.522 31.021 146.38 31.2333C146.288 31.2333 146.195 31.2333 146.1 31.2333C146.447 31.9965 146.447 31.9965 146.801 32.7751C146.523 32.7751 146.246 32.7751 145.96 32.7751C145.749 32.5347 145.749 32.5347 145.601 32.2232C145.353 31.7386 145.353 31.7386 144.865 31.5136C144.764 31.5136 144.662 31.5136 144.558 31.5136C144.558 31.9299 144.558 32.3462 144.558 32.7751C144.281 32.7751 144.003 32.7751 143.717 32.7751C143.717 31.5263 143.717 30.2774 143.717 28.9907ZM144.558 29.5514C144.558 29.9677 144.558 30.3839 144.558 30.8128C145.12 30.8379 145.12 30.8379 145.679 30.8128C145.772 30.7203 145.864 30.6278 145.96 30.5325C145.914 30.0704 145.873 29.8846 145.539 29.5514C145.037 29.528 145.037 29.528 144.558 29.5514Z" fill="#008C1C"/>
<path d="M72.3755 28.9908C72.8699 28.9734 72.8699 28.9734 73.3742 28.9557C73.4763 28.9506 73.5784 28.9455 73.6836 28.9402C74.3937 28.9283 74.7769 29.1054 75.3189 29.5514C75.7285 30.1658 75.8178 30.6415 75.7394 31.3735C75.4939 32.0325 75.2116 32.3994 74.6181 32.7751C74.226 32.8407 73.8491 32.8284 73.453 32.8101C73.0975 32.7986 72.7419 32.787 72.3755 32.7751C72.3755 31.5263 72.3755 30.2774 72.3755 28.9908ZM73.2165 29.5514C73.2165 30.4302 73.2165 31.309 73.2165 32.2144C74.1519 32.3135 74.1519 32.3135 74.6006 31.9078C74.9105 31.4977 75.0386 31.3226 75.0386 30.8128C74.8267 30.1 74.8267 30.1 74.2852 29.6302C73.8658 29.5269 73.8658 29.5269 73.2165 29.5514Z" fill="#008C1C"/>
<path d="M111.34 28.9908C111.696 28.9734 112.051 28.9561 112.418 28.9382C112.528 28.9305 112.639 28.9229 112.753 28.915C113.175 28.9051 113.468 28.9011 113.809 29.1669C114.115 29.5192 114.276 29.7926 114.362 30.2522C114.264 30.7749 114.043 31.0941 113.723 31.5136C113.954 31.9299 114.185 32.3462 114.424 32.7751C114.047 32.8364 114.047 32.8364 113.583 32.7751C113.287 32.4843 113.07 32.1625 112.882 31.794C112.882 31.7015 112.882 31.609 112.882 31.5136C112.604 31.5136 112.327 31.5136 112.041 31.5136C112.041 31.9299 112.041 32.3462 112.041 32.7751C111.81 32.7751 111.578 32.7751 111.34 32.7751C111.34 31.5263 111.34 30.2774 111.34 28.9908ZM112.041 29.5514C112.041 29.9677 112.041 30.3839 112.041 30.8128C112.457 30.8128 112.874 30.8128 113.302 30.8128C113.395 30.6278 113.487 30.4428 113.583 30.2522C113.453 29.8739 113.383 29.7319 113.022 29.5514C112.695 29.5458 112.368 29.5453 112.041 29.5514Z" fill="#008C1C"/>
<path d="M105.594 28.9908C105.938 29.1907 106.153 29.403 106.435 29.6916C106.296 29.8997 106.296 29.8997 106.154 30.112C105.808 30.0322 105.511 29.9366 105.182 29.7967C104.75 29.6445 104.75 29.6445 104.358 29.8668C103.943 30.1992 103.92 30.3221 103.859 30.8566C103.87 31.3883 103.87 31.3883 104.209 31.794C104.592 32.12 104.592 32.12 105.059 32.0568C105.442 31.9494 105.442 31.9494 105.734 31.794C105.78 31.6552 105.826 31.5164 105.874 31.3735C105.643 31.3735 105.411 31.3735 105.173 31.3735C105.173 31.1885 105.173 31.0035 105.173 30.8128C105.636 30.8128 106.098 30.8128 106.575 30.8128C106.575 31.5066 106.575 32.2004 106.575 32.9153C106.343 32.9153 106.112 32.9153 105.874 32.9153C105.828 32.8227 105.781 32.7302 105.734 32.6349C105.641 32.6812 105.549 32.7274 105.453 32.7751C104.892 32.8655 104.394 32.8967 103.896 32.5972C103.106 31.9253 103.106 31.9253 103.027 31.3237C102.995 30.6014 102.986 30.1042 103.465 29.5339C104.054 28.9259 104.783 28.8612 105.594 28.9908Z" fill="#008C1C"/>
<path d="M131.243 28.9908C131.552 28.9821 131.862 28.9734 132.18 28.9645C132.441 28.9572 132.441 28.9572 132.708 28.9497C133.425 29.0089 133.762 29.2476 134.23 29.7792C134.534 30.3862 134.565 30.8477 134.467 31.5136C134.294 32.0057 134.16 32.2665 133.748 32.5862C133.24 32.8244 132.798 32.8216 132.25 32.8014C131.918 32.7927 131.586 32.784 131.243 32.7751C131.243 31.5263 131.243 30.2774 131.243 28.9908ZM131.944 29.5514C131.944 30.4302 131.944 31.309 131.944 32.2144C132.856 32.2901 132.856 32.2901 133.328 32.0042C133.674 31.5976 133.761 31.3431 133.792 30.8178C133.744 30.2946 133.577 30.0542 133.205 29.6916C132.789 29.6453 132.373 29.5991 131.944 29.5514Z" fill="#008C1C"/>
<path d="M168.116 29.1342C168.707 29.5834 168.971 30.0461 169.084 30.7789C169.089 31.4501 168.805 31.9144 168.377 32.4072C167.868 32.834 167.438 32.8376 166.79 32.8348C166.188 32.7368 165.828 32.3891 165.442 31.9341C165.162 31.3738 165.212 30.7195 165.302 30.112C165.871 29.0772 167.004 28.5857 168.116 29.1342ZM166.283 29.9719C165.934 30.4957 165.939 30.753 166.003 31.3735C166.277 31.8591 166.45 32.0331 166.975 32.2232C167.53 32.2119 167.719 32.0398 168.105 31.6538C168.322 31.2192 168.286 30.8718 168.245 30.3923C167.987 29.9526 167.816 29.7453 167.343 29.5514C166.872 29.5514 166.655 29.6904 166.283 29.9719Z" fill="#008C1C"/>
<path d="M137.41 28.9907C137.942 29.2561 138.282 29.5918 138.529 30.1339C138.692 30.7125 138.686 31.0424 138.514 31.6275C138.215 32.1351 137.942 32.5093 137.41 32.7751C136.807 32.8622 136.242 32.9111 135.703 32.5971C134.917 31.9271 134.917 31.9271 134.854 31.3494C134.83 30.5343 134.877 30.0432 135.448 29.4112C136.031 28.9113 136.673 28.8395 137.41 28.9907ZM135.868 29.9719C135.519 30.4957 135.524 30.753 135.588 31.3735C135.862 31.8591 136.035 32.0331 136.56 32.2232C137.115 32.2119 137.304 32.0398 137.69 31.6538C137.908 31.2192 137.871 30.8718 137.831 30.3923C137.572 29.9526 137.401 29.7453 136.928 29.5514C136.458 29.5514 136.24 29.6904 135.868 29.9719Z" fill="#008C1C"/>
<path d="M107.135 28.9907C107.413 28.9907 107.69 28.9907 107.976 28.9907C107.98 29.1664 107.984 29.342 107.987 29.5229C107.995 29.7543 108.003 29.9857 108.011 30.2172C108.013 30.3328 108.015 30.4484 108.017 30.5676C108.039 31.1132 108.052 31.4234 108.375 31.8761C108.679 32.1176 108.679 32.1176 109.124 32.0568C109.319 31.9961 109.319 31.9961 109.518 31.9341C109.679 31.6127 109.686 31.4016 109.703 31.0439C109.708 30.9246 109.714 30.8054 109.72 30.6825C109.726 30.5579 109.731 30.4332 109.737 30.3048C109.743 30.179 109.749 30.0533 109.755 29.9237C109.77 29.6127 109.785 29.3018 109.798 28.9907C110.076 28.9907 110.353 28.9907 110.639 28.9907C110.651 29.3675 110.659 29.7439 110.666 30.1208C110.669 30.2262 110.673 30.3316 110.676 30.4403C110.687 31.2938 110.579 31.9826 109.96 32.6218C109.374 32.9197 108.754 32.8744 108.116 32.7751C107.449 32.3253 107.313 31.8567 107.135 31.0932C107.117 30.7227 107.111 30.3515 107.118 29.9806C107.119 29.8848 107.12 29.7889 107.122 29.6902C107.125 29.457 107.13 29.2239 107.135 28.9907Z" fill="#008C1C"/>
<path d="M125.365 29.166C125.455 29.2469 125.544 29.3278 125.637 29.4112C125.637 29.5962 125.637 29.7813 125.637 29.9719C125.076 29.9719 125.076 29.9719 124.664 29.823C124.21 29.6838 123.983 29.6997 123.534 29.8317C123.308 30.5094 123.31 31.2609 123.534 31.9341C124.093 32.038 124.093 32.038 124.655 32.0743C124.845 31.9385 125.033 31.799 125.216 31.6538C125.601 31.7677 125.601 31.7677 125.917 31.9341C125.707 32.5875 125.232 32.7563 124.655 33.0554C124.748 33.1017 124.84 33.1479 124.936 33.1956C124.889 33.4268 124.843 33.6581 124.796 33.8964C124.426 33.8964 124.056 33.8964 123.674 33.8964C123.721 33.8039 123.767 33.7114 123.814 33.6161C124.092 33.6161 124.369 33.6161 124.655 33.6161C124.655 33.5235 124.655 33.431 124.655 33.3357C124.424 33.3357 124.193 33.3357 123.955 33.3357C123.908 33.197 123.862 33.0582 123.814 32.9153C123.619 32.7938 123.619 32.7938 123.42 32.67C122.897 32.3006 122.606 31.9866 122.413 31.3735C122.353 30.5366 122.565 29.9141 123.114 29.2711C123.822 28.8366 124.61 28.8576 125.365 29.166Z" fill="#008C1C"/>
<path d="M92.1382 28.9907C93.017 28.9907 93.8958 28.9907 94.8012 28.9907C94.8012 29.1758 94.8012 29.3608 94.8012 29.5514C94.1999 29.5514 93.5987 29.5514 92.9791 29.5514C92.9791 29.8752 92.9791 30.1989 92.9791 30.5325C93.4879 30.5325 93.9967 30.5325 94.5209 30.5325C94.5209 30.7638 94.5209 30.995 94.5209 31.2333C94.0121 31.2333 93.5033 31.2333 92.9791 31.2333C92.9791 31.5571 92.9791 31.8809 92.9791 32.2144C93.5804 32.2144 94.1817 32.2144 94.8012 32.2144C94.8012 32.3995 94.8012 32.5845 94.8012 32.7751C93.9224 32.7751 93.0436 32.7751 92.1382 32.7751C92.1382 31.5263 92.1382 30.2774 92.1382 28.9907Z" fill="#008C1C"/>
<path d="M98.7257 28.9907C99.0492 29.1347 99.0492 29.1347 99.2863 29.2711C99.2401 29.5023 99.1938 29.7336 99.1461 29.9719C99.0169 29.9415 99.0169 29.9415 98.885 29.9105C98.7717 29.8845 98.6584 29.8585 98.5417 29.8317C98.4295 29.8057 98.3173 29.7797 98.2017 29.7529C97.8697 29.6782 97.8697 29.6782 97.4642 29.6915C97.4642 29.9228 97.4642 30.1541 97.4642 30.3923C97.6062 30.4154 97.6062 30.4154 97.7511 30.4389C97.8761 30.4611 98.0012 30.4833 98.13 30.5062C98.3154 30.5379 98.3154 30.5379 98.5045 30.5703C98.8999 30.6823 99.1262 30.8146 99.4265 31.0932C99.5937 31.606 99.6124 31.836 99.3827 32.3283C99.1461 32.6349 99.1461 32.6349 98.8658 32.7751C98.5948 32.7959 98.3229 32.8061 98.0511 32.8101C97.9057 32.8137 97.7603 32.8173 97.6104 32.8211C97.1332 32.7696 96.8722 32.6279 96.4831 32.3546C96.5756 32.1696 96.6681 31.9846 96.7634 31.794C96.8715 31.8158 96.9795 31.8377 97.0908 31.8602C97.3017 31.9011 97.3017 31.9011 97.5168 31.9429C97.6566 31.9705 97.7965 31.9982 97.9405 32.0266C98.3022 32.1085 98.3022 32.1085 98.5855 31.9341C98.6318 31.7954 98.678 31.6566 98.7257 31.5136C98.631 31.4865 98.5363 31.4594 98.4388 31.4315C98.3137 31.395 98.1887 31.3585 98.0599 31.3209C97.8745 31.2673 97.8745 31.2673 97.6854 31.2125C97.3548 31.1033 97.0631 30.9897 96.7634 30.8128C96.561 30.408 96.5704 30.1406 96.6233 29.6915C97.1581 28.8715 97.8224 28.8512 98.7257 28.9907Z" fill="#008C1C"/>
<path d="M100.127 28.9907C101.006 28.9907 101.885 28.9907 102.79 28.9907C102.79 29.1758 102.79 29.3608 102.79 29.5514C102.143 29.5514 101.495 29.5514 100.828 29.5514C100.828 29.8752 100.828 30.1989 100.828 30.5325C101.383 30.5325 101.938 30.5325 102.51 30.5325C102.51 30.7638 102.51 30.995 102.51 31.2333C101.955 31.2333 101.4 31.2333 100.828 31.2333C100.828 31.5571 100.828 31.8809 100.828 32.2144C101.476 32.2144 102.123 32.2144 102.79 32.2144C102.79 32.3995 102.79 32.5845 102.79 32.7751C101.912 32.7751 101.033 32.7751 100.127 32.7751C100.127 31.5263 100.127 30.2774 100.127 28.9907Z" fill="#008C1C"/>
<path d="M69.1518 28.9907C70.0306 28.9907 70.9094 28.9907 71.8148 28.9907C71.8148 29.1758 71.8148 29.3608 71.8148 29.5514C71.1673 29.5514 70.5198 29.5514 69.8526 29.5514C69.8526 29.8752 69.8526 30.1989 69.8526 30.5325C70.4076 30.5325 70.9627 30.5325 71.5345 30.5325C71.5345 30.7638 71.5345 30.995 71.5345 31.2333C70.9795 31.2333 70.4245 31.2333 69.8526 31.2333C69.8526 31.5571 69.8526 31.8809 69.8526 32.2144C70.5001 32.2144 71.1477 32.2144 71.8148 32.2144C71.8148 32.3995 71.8148 32.5845 71.8148 32.7751C70.936 32.7751 70.0572 32.7751 69.1518 32.7751C69.1518 31.5263 69.1518 30.2774 69.1518 28.9907Z" fill="#008C1C"/>
<path d="M127.818 28.982C127.987 28.9863 127.987 28.9863 128.159 28.9908C129.561 32.3009 129.561 32.3009 129.561 32.7751C129.33 32.7751 129.099 32.7751 128.86 32.7751C128.721 32.4976 128.583 32.2201 128.44 31.9341C128.023 31.9341 127.607 31.9341 127.178 31.9341C127.04 32.2116 126.901 32.4892 126.758 32.7751C126.527 32.7751 126.295 32.7751 126.057 32.7751C126.299 31.8911 126.595 31.0313 126.916 30.1734C126.953 30.0732 126.99 29.973 127.028 29.8698C127.36 28.9932 127.36 28.9932 127.818 28.982ZM127.739 29.8317C127.668 30.0095 127.598 30.1877 127.529 30.3661C127.49 30.4653 127.451 30.5645 127.41 30.6667C127.297 30.9696 127.297 30.9696 127.318 31.3735C127.642 31.3735 127.966 31.3735 128.3 31.3735C128.222 30.82 128.105 30.3434 127.879 29.8317C127.833 29.8317 127.787 29.8317 127.739 29.8317Z" fill="#008C1C"/>
<path d="M116.325 28.982C116.494 28.9863 116.494 28.9863 116.666 28.9908C118.068 32.3009 118.068 32.3009 118.068 32.7751C117.837 32.7751 117.605 32.7751 117.367 32.7751C117.228 32.4976 117.09 32.2201 116.947 31.9341C116.53 31.9341 116.114 31.9341 115.685 31.9341C115.546 32.2116 115.408 32.4892 115.265 32.7751C115.033 32.7751 114.802 32.7751 114.564 32.7751C114.806 31.8911 115.102 31.0313 115.422 30.1734C115.46 30.0732 115.497 29.973 115.535 29.8698C115.866 28.9932 115.866 28.9932 116.325 28.982ZM116.246 29.8317C116.175 30.0095 116.105 30.1877 116.036 30.3661C115.997 30.4653 115.957 30.5645 115.917 30.6667C115.804 30.9696 115.804 30.9696 115.825 31.3735C116.149 31.3735 116.473 31.3735 116.806 31.3735C116.729 30.82 116.612 30.3434 116.386 29.8317C116.34 29.8317 116.293 29.8317 116.246 29.8317Z" fill="#008C1C"/>
<path d="M155.631 28.9907C155.908 28.9907 156.186 28.9907 156.472 28.9907C156.683 29.5422 156.893 30.0942 157.103 30.6464C157.163 30.8033 157.223 30.9602 157.285 31.1219C157.342 31.2723 157.399 31.4227 157.457 31.5777C157.51 31.7164 157.563 31.8551 157.618 31.9981C157.733 32.3546 157.733 32.3546 157.733 32.7751C157.502 32.7751 157.271 32.7751 157.033 32.7751C156.828 32.404 156.752 32.2292 156.752 31.794C156.29 31.794 155.827 31.794 155.351 31.794C155.212 32.2796 155.212 32.2796 155.07 32.7751C154.793 32.7751 154.515 32.7751 154.229 32.7751C154.383 32.3281 154.538 31.8814 154.694 31.4348C154.737 31.3093 154.78 31.1838 154.825 31.0546C155.069 30.3535 155.329 29.6687 155.631 28.9907ZM155.911 29.9719C155.772 30.4344 155.634 30.8969 155.491 31.3735C155.861 31.3735 156.231 31.3735 156.612 31.3735C156.427 30.9109 156.242 30.4484 156.051 29.9719C156.005 29.9719 155.959 29.9719 155.911 29.9719Z" fill="#008C1C"/>
<path d="M148.343 28.9907C148.62 28.9907 148.898 28.9907 149.184 28.9907C149.395 29.5422 149.605 30.0942 149.814 30.6464C149.874 30.8033 149.935 30.9602 149.997 31.1219C150.054 31.2723 150.11 31.4227 150.169 31.5777C150.222 31.7164 150.275 31.8551 150.329 31.9981C150.445 32.3546 150.445 32.3546 150.445 32.7751C150.214 32.7751 149.982 32.7751 149.744 32.7751C149.539 32.404 149.464 32.2292 149.464 31.794C149.001 31.794 148.539 31.794 148.062 31.794C147.924 32.2796 147.924 32.2796 147.782 32.7751C147.504 32.7751 147.227 32.7751 146.941 32.7751C147.095 32.3281 147.25 31.8814 147.405 31.4348C147.449 31.3093 147.492 31.1838 147.536 31.0546C147.78 30.3535 148.04 29.6687 148.343 28.9907ZM148.623 29.9719C148.484 30.4344 148.345 30.8969 148.202 31.3735C148.572 31.3735 148.942 31.3735 149.324 31.3735C149.139 30.9109 148.954 30.4484 148.763 29.9719C148.717 29.9719 148.671 29.9719 148.623 29.9719Z" fill="#008C1C"/>
<path d="M88.3538 28.9907C88.6313 28.9907 88.9089 28.9907 89.1948 28.9907C89.3947 29.5071 89.5943 30.0235 89.7936 30.54C89.8615 30.7158 89.9295 30.8916 89.9976 31.0674C90.0952 31.3195 90.1925 31.5718 90.2898 31.8241C90.3485 31.976 90.4072 32.1279 90.4677 32.2845C90.5964 32.6349 90.5964 32.6349 90.5964 32.7751C90.3189 32.7751 90.0413 32.7751 89.7554 32.7751C89.6629 32.4513 89.5704 32.1275 89.4751 31.794C89.0126 31.794 88.55 31.794 88.0735 31.794C87.9347 32.2796 87.9347 32.2796 87.7932 32.7751C87.5157 32.7751 87.2381 32.7751 86.9522 32.7751C87.4147 31.5263 87.8773 30.2774 88.3538 28.9907ZM88.6341 29.9719C88.4954 30.4344 88.3566 30.8969 88.2137 31.3735C88.5837 31.3735 88.9537 31.3735 89.3349 31.3735C89.1962 30.9109 89.0574 30.4484 88.9145 29.9719C88.822 29.9719 88.7294 29.9719 88.6341 29.9719Z" fill="#008C1C"/>
<path d="M80.2245 28.9907C80.5778 29.1889 80.7826 29.3938 81.0655 29.6916C80.9267 29.8303 80.788 29.9691 80.645 30.112C80.567 30.0687 80.4889 30.0253 80.4085 29.9806C80.05 29.8159 79.7783 29.7204 79.3836 29.6916C78.8632 29.937 78.8632 29.937 78.5426 30.3924C78.4741 30.9971 78.4812 31.2814 78.8229 31.794C79.2715 32.093 79.3447 32.1097 79.8479 32.048C80.0184 32.0104 80.189 31.9728 80.3647 31.9341C80.3647 31.8416 80.3647 31.7491 80.3647 31.6538C80.6363 31.7064 80.6363 31.7064 80.9253 31.794C80.9716 31.8865 81.0178 31.979 81.0655 32.0743C80.5609 32.5957 80.2955 32.7996 79.5675 32.8364C78.8615 32.8323 78.5238 32.6384 78.0208 32.1591C77.6263 31.6633 77.6393 31.0807 77.642 30.4739C77.7406 29.8755 78.0901 29.5142 78.5426 29.1309C79.064 28.8702 79.6569 28.9092 80.2245 28.9907Z" fill="#008C1C"/>
<path d="M140.073 28.9907C141.137 28.9907 142.201 28.9907 143.297 28.9907C143.297 29.1758 143.297 29.3608 143.297 29.5514C142.88 29.5514 142.464 29.5514 142.035 29.5514C142.035 30.6152 142.035 31.679 142.035 32.7751C141.804 32.7751 141.573 32.7751 141.334 32.7751C141.334 31.7113 141.334 30.6474 141.334 29.5514C140.918 29.5514 140.502 29.5514 140.073 29.5514C140.073 29.3664 140.073 29.1814 140.073 28.9907Z" fill="#008C1C"/>
<path d="M158.294 28.9907C158.525 28.9907 158.756 28.9907 158.995 28.9907C158.995 30.0546 158.995 31.1184 158.995 32.2144C159.642 32.2144 160.29 32.2144 160.957 32.2144C160.957 32.3995 160.957 32.5845 160.957 32.7751C160.078 32.7751 159.199 32.7751 158.294 32.7751C158.294 31.5263 158.294 30.2774 158.294 28.9907Z" fill="#008C1C"/>
<path d="M76.3 28.9907C76.5775 28.9907 76.855 28.9907 77.141 28.9907C77.141 30.2396 77.141 31.4884 77.141 32.7751C76.8634 32.7751 76.5859 32.7751 76.3 32.7751C76.3 31.5263 76.3 30.2774 76.3 28.9907Z" fill="#008C1C"/>
<path d="M81.6261 28.9907C81.8574 28.9907 82.0887 28.9907 82.3269 28.9907C82.3269 30.2396 82.3269 31.4884 82.3269 32.7751C82.0957 32.7751 81.8644 32.7751 81.6261 32.7751C81.6261 31.5263 81.6261 30.2774 81.6261 28.9907Z" fill="#008C1C"/>
<path d="M160.957 15.3952C161.466 15.3952 161.975 15.3952 162.499 15.3952C161.778 16.7567 161.778 16.7567 161.237 17.2173C160.96 17.1248 160.682 17.0323 160.396 16.937C160.481 16.3584 160.682 15.9093 160.957 15.3952Z" fill="#00184A"/>
<path d="M134.537 15.3815C134.749 15.3839 134.749 15.3839 134.966 15.3864C135.108 15.3877 135.25 15.389 135.396 15.3903C135.56 15.3927 135.56 15.3927 135.728 15.3952C135.571 15.6466 135.413 15.8976 135.255 16.1486C135.123 16.3583 135.123 16.3583 134.989 16.5723C134.747 16.937 134.747 16.937 134.467 17.2173C134.143 17.1248 133.819 17.0323 133.486 16.937C133.576 16.7061 133.666 16.4755 133.757 16.2449C133.808 16.1165 133.858 15.988 133.91 15.8556C134.104 15.3984 134.104 15.3984 134.537 15.3815Z" fill="#00184A"/>
<path d="M80.645 15.3952C81.1537 15.3952 81.6625 15.3952 82.1867 15.3952C81.8436 16.1449 81.5412 16.6698 80.9253 17.2173C80.6478 17.1248 80.3702 17.0323 80.0843 16.937C80.1512 16.7325 80.2184 16.5281 80.2858 16.3238C80.3232 16.2099 80.3606 16.0961 80.3991 15.9788C80.5048 15.6755 80.5048 15.6755 80.645 15.3952Z" fill="#00184A"/>
</svg>
