<svg width="100" height="86" viewBox="0 0 100 86" fill="none" xmlns="http://www.w3.org/2000/svg">
<path d="M81.7678 11.1441C82.4243 11.7327 83.0521 12.3491 83.6817 12.9663C83.999 13.2396 84.3181 13.5108 84.6395 13.7791C92.5236 20.6532 96.9418 31.1803 98.5429 41.2956C98.5747 41.4942 98.6064 41.6928 98.6391 41.8974C100.055 51.3654 98.9241 65.4716 93.2858 73.4119C93.1816 73.5415 93.0774 73.671 92.97 73.8045C92.7518 73.698 92.7518 73.698 92.5292 73.5893C89.4626 72.0953 86.3823 70.6487 83.2523 69.2921C82.1413 68.8104 81.0411 68.3256 79.9664 67.7671C80.3222 66.8118 80.766 65.9089 81.2147 64.995C83.8501 59.5962 85.7968 53.8325 86.236 47.7974C86.2512 47.5908 86.2664 47.3843 86.2821 47.1715C86.9896 36.7752 84.6034 25.7033 77.7015 17.5965C77.0927 16.9161 76.4664 16.257 75.8257 15.6068C75.3222 15.0562 75.3222 15.0562 75.3222 14.5918C75.1319 14.5119 75.1319 14.5119 74.9377 14.4303C74.3801 14.1199 73.9452 13.7484 73.475 13.32C66.395 6.91354 56.3489 4.21282 46.9729 4.56778C44.0004 4.73964 41.1968 5.47277 38.4014 6.46455C38.1179 6.56183 37.8344 6.65912 37.5424 6.75934C28.1795 10.212 21.1213 18.4774 16.9739 27.3033C12.4437 37.3802 11.4777 48.728 15.3601 59.164C16.2667 61.4709 17.422 63.6236 18.6859 65.7526C18.896 66.1417 18.896 66.1417 19.1282 66.8383C18.9122 66.9376 18.9122 66.9376 18.6919 67.0388C14.3382 69.041 9.99723 71.0698 5.6602 73.1079C4.94358 72.4385 4.59053 71.706 4.2089 70.8149C4.13905 70.6522 4.06919 70.4895 3.99722 70.3219C1.33638 63.9795 -0.0166815 57.3669 0.000155214 50.4968C0.000358665 50.293 0.000562115 50.0892 0.00077173 49.8792C0.0119175 46.4817 0.23316 43.2199 1.01606 39.9023C1.07211 39.663 1.12816 39.4236 1.18591 39.177C2.66307 33.0724 5.22652 27.1314 8.91109 22.0224C9.07004 21.8 9.22898 21.5776 9.39274 21.3485C12.5039 17.0978 16.0586 13.3228 20.2892 10.1799C20.5089 10.0131 20.7286 9.84641 20.955 9.67463C38.5645 -3.46868 64.8359 -3.45094 81.7678 11.1441Z" fill="#00184A"/>
<path d="M26.0945 28.9886C27.4984 29.4174 28.7924 29.9345 30.0855 30.6286C30.3394 30.7641 30.3394 30.7641 30.5985 30.9025C32.2979 31.8316 33.8464 32.922 35.3827 34.0972C35.5899 34.2549 35.797 34.4127 36.0104 34.5752C37.4944 35.7348 38.8736 37.0027 40.2591 38.2769C43.2793 41.0337 46.273 43.7285 50.546 43.6802C54.7039 43.3773 58.0821 39.634 60.969 36.9127C63.7317 34.393 69.7004 28.9886 73.6969 28.9886C73.574 33.9381 70.3783 38.016 66.9801 41.3246C66.2262 42.0061 65.432 42.6356 64.6408 43.273C56.6172 49.9175 55.096 57.6502 53.5964 67.622C52.2432 76.6124 52.2432 76.6124 50.7084 80.5385C49.1935 80.4242 49.1935 80.4242 48.6998 79.898C48.3719 79.3536 48.2236 78.9243 48.087 78.3054C48.0371 78.0795 47.9873 77.8537 47.9359 77.621C47.8834 77.3673 47.8309 77.1136 47.7768 76.8522C47.719 76.58 47.6613 76.3078 47.6018 76.0273C46.8369 72.3335 46.2669 68.5996 45.6777 64.8747C44.577 57.9958 43.3158 50.7558 38.1692 45.7075C38.0088 45.539 37.8483 45.3705 37.683 45.1968C36.6725 44.1429 35.5714 43.2353 34.4367 42.3187C30.215 38.8467 26.9482 35.0114 26.0945 29.453C26.0945 29.2998 26.0945 29.1465 26.0945 28.9886Z" fill="#001942"/>
<path d="M82.2885 51.7449C82.5184 51.9747 82.5184 51.9747 82.7529 52.2093C80.0021 61.2385 74.5704 70.151 66.0345 74.7287C62.7179 76.4185 59.3 77.4735 55.5847 77.752C55.9862 74.5207 56.4754 71.3026 56.9861 68.087C57.058 67.6325 57.129 67.1778 57.1991 66.7231C57.2995 66.0738 57.4032 65.4252 57.5077 64.7766C57.5374 64.5803 57.5672 64.3841 57.5978 64.1819C58.0597 61.3815 60.1319 59.9619 62.3106 58.3724C68.0746 54.2586 75.0217 51.0287 82.2885 51.7449Z" fill="#E2E2E2"/>
<path d="M27.9602 53.1934C31.8973 54.5481 35.3975 56.6969 38.6218 59.3088C39.3088 59.8728 39.3088 59.8728 40.0023 60.312C41.2591 61.2155 41.7588 62.0368 42.0288 63.5285C42.0772 63.8311 42.0772 63.8311 42.1266 64.1398C42.1639 64.3531 42.2012 64.5664 42.2396 64.7861C42.3577 65.4695 42.4698 66.1537 42.5811 66.8383C42.656 67.2864 42.731 67.7345 42.8061 68.1826C42.9912 69.2987 43.1699 70.4156 43.3456 71.5331C43.4541 72.2224 43.564 72.9114 43.6741 73.6004C43.744 74.0415 43.8139 74.4827 43.8836 74.9238C43.9163 75.1284 43.9489 75.333 43.9825 75.5438C44.0121 75.7326 44.0416 75.9213 44.0721 76.1158C44.0981 76.2811 44.1242 76.4463 44.1511 76.6166C44.2065 77.0554 44.2065 77.0554 44.2065 77.752C37.8197 77.4865 32.1181 74.3058 27.4876 70.0892C27.2609 69.8872 27.2609 69.8872 27.0296 69.681C22.4243 65.3479 18.1717 58.1995 17.0383 51.9771C19.8724 50.56 25.1149 52.2679 27.9602 53.1934Z" fill="#E2E2E2"/>
<path d="M77.6444 71.0181C78.4773 71.3333 79.2415 71.7043 80.0172 72.141C80.2506 72.272 80.4839 72.403 80.7243 72.5379C80.9723 72.6781 81.2203 72.8184 81.4758 72.9628C81.732 73.1071 81.9882 73.2513 82.2522 73.4C83.0389 73.8435 83.8248 74.2882 84.6106 74.7334C84.8477 74.8676 85.0848 75.0018 85.3291 75.1401C85.985 75.5118 86.6403 75.8843 87.2955 76.2573C87.5869 76.4229 87.5869 76.4229 87.8841 76.5919C89.0553 77.2613 90.2065 77.9566 91.3446 78.6809C87.3098 83.1192 80.6332 85.158 74.8579 85.8793C68.5909 86.153 61.2335 86.2249 55.5847 83.0929C56.2562 82.5499 56.8977 82.2007 57.6963 81.8756C57.9324 81.7781 58.1684 81.6807 58.4116 81.5803C58.6664 81.476 58.9213 81.3717 59.1839 81.2642C69.1506 77.3457 69.1506 77.3457 77.6444 71.0181Z" fill="#E2E2E2"/>
<path d="M21.6824 70.3214C21.9478 70.5867 22.2122 70.853 22.4728 71.1229C23.8377 72.4468 25.4325 73.4695 27.0812 74.3995C27.2884 74.5167 27.4955 74.6339 27.7089 74.7547C32.7195 77.5425 37.9594 79.8077 43.2777 81.9318C43.2777 82.1616 43.2777 82.3915 43.2777 82.6284C34.0036 85.9886 23.6213 86.5179 14.4795 82.4588C12.1392 81.3312 9.92679 79.9449 7.98224 78.2164C8.65295 77.4883 9.30837 77.0197 10.1773 76.5493C10.4289 76.4116 10.6805 76.274 10.9398 76.1321C11.209 75.9866 11.4782 75.8411 11.7556 75.6912C12.3206 75.3826 12.8849 75.0726 13.4491 74.7624C13.5924 74.6837 13.7357 74.605 13.8834 74.5239C16.0437 73.3342 18.165 72.0766 20.2888 70.8231C21.1541 70.3214 21.1541 70.3214 21.6824 70.3214Z" fill="#E2E2E2"/>
<path d="M54.4826 22.553C56.107 23.6596 57.1717 25.2364 57.6745 27.1309C57.9136 29.2317 57.9155 31.3481 56.7457 33.1683C56.6236 33.3842 56.6236 33.3842 56.499 33.6046C55.4906 35.2256 53.7815 36.2482 51.9718 36.7738C49.6385 37.2256 47.5935 36.8268 45.5408 35.6563C43.9164 34.5497 42.8516 32.9729 42.3489 31.0784C42.1098 28.9776 42.1079 26.8612 43.2777 25.041C43.3591 24.8971 43.4405 24.7531 43.5244 24.6047C44.5327 22.9837 46.2419 21.9611 48.0515 21.4355C50.3849 20.9837 52.4299 21.3825 54.4826 22.553Z" fill="#00184A"/>
</svg>
